<svg width="145" height="141" viewBox="0 0 145 141" fill="none" xmlns="http://www.w3.org/2000/svg">
<g id="6102a59a3cbd9d473354b142_img-manifesto-01.svg">
<path id="Vector" d="M133.333 23.1538C133.333 19.9836 129.933 17.9747 127.157 19.504L75.8333 47.769V139.436L129.02 110.145C131.681 108.679 133.333 105.882 133.333 102.845V23.1538Z" fill="url(#paint0_linear_61_999)"/>
<g id="Group">
<path id="Vector_2" fill-rule="evenodd" clip-rule="evenodd" d="M29.7427 16.7415C30.08 16.1392 30.8417 15.9244 31.4441 16.2616L72.5 39.2529L113.556 16.2616C114.158 15.9244 114.92 16.1392 115.257 16.7415C115.595 17.3439 115.38 18.1056 114.777 18.4429L73.1107 41.7763C72.7313 41.9887 72.2687 41.9887 71.8892 41.7763L30.2226 18.4429C29.6202 18.1056 29.4054 17.3439 29.7427 16.7415Z" fill="url(#paint1_linear_61_999)"/>
<path id="Vector_3" fill-rule="evenodd" clip-rule="evenodd" d="M17.8434 19.504C15.0664 17.9747 11.6667 19.9836 11.6667 23.1538V102.845C11.6667 105.882 13.3194 108.679 15.9799 110.145L69.1667 139.436V47.769L17.8434 19.504ZM26.8497 45.9504C26.2044 45.5899 25.4165 45.5981 24.7791 45.9721C24.1416 46.3462 23.75 47.03 23.75 47.769V69.6356C23.75 71.296 24.648 72.8266 26.0975 73.6366L53.1504 88.7541C53.7956 89.1149 54.5835 89.1066 55.2209 88.7324C55.8584 88.3582 56.25 87.6749 56.25 86.9357V65.0692C56.25 63.4088 55.352 61.8782 53.9025 61.0682L26.8497 45.9504Z" fill="url(#paint2_linear_61_999)"/>
</g>
</g>
<defs>
<linearGradient id="paint0_linear_61_999" x1="104.583" y1="16.1024" x2="104.583" y2="139.436" gradientUnits="userSpaceOnUse">
<stop stop-color="#E8F6FF"/>
<stop offset="1" stop-color="#C9E2FF"/>
</linearGradient>
<linearGradient id="paint1_linear_61_999" x1="30.8332" y1="17.7691" x2="114.583" y2="17.3524" gradientUnits="userSpaceOnUse">
<stop stop-color="#1A53A2"/>
<stop offset="1" stop-color="#002F70"/>
</linearGradient>
<linearGradient id="paint2_linear_61_999" x1="40.4167" y1="18.9812" x2="40.4167" y2="139.436" gradientUnits="userSpaceOnUse">
<stop stop-color="#A3CEFF"/>
<stop offset="1" stop-color="#91C5FF"/>
</linearGradient>
</defs>
</svg>
