<svg width="189" height="147" viewBox="0 0 189 147" fill="none" xmlns="http://www.w3.org/2000/svg">
<g id="Group">
<path id="Vector" fill-rule="evenodd" clip-rule="evenodd" d="M34.8582 43.6565C33.945 43.3477 33.4548 42.3571 33.7635 41.4438C39.6137 24.136 33.3937 10.1056 18.2754 4.65015C14.8792 15.6557 15.6539 23.9236 19.8653 29.9599C20.417 30.7506 20.2233 31.8386 19.4327 32.3902C18.6419 32.9419 17.5539 32.7482 17.0023 31.9576C11.89 24.6303 11.1731 14.6925 15.503 1.87821L16.0468 0.269043L17.6701 0.768618C35.8884 6.37498 43.7431 22.8216 37.0708 42.5618C36.762 43.4751 35.7715 43.9651 34.8582 43.6565ZM32.4531 75.8607C32.5142 76.8231 33.3437 77.5539 34.3057 77.4922C35.2678 77.4317 35.9983 76.602 35.9372 75.6396C34.5368 53.5727 21.284 40.2085 2.65388 41.507L0.923889 41.6276L1.03316 43.3582C1.93587 57.6561 6.28285 67.1993 13.6109 72.5465C14.3897 73.1149 15.4817 72.9442 16.0499 72.1654C16.6181 71.3867 16.4475 70.2946 15.6688 69.7264C9.55541 65.2655 5.71717 57.2437 4.65001 44.9152C20.2963 44.6851 31.2147 56.3461 32.4531 75.8607ZM43.1378 107.099C43.6012 107.944 44.6622 108.254 45.5075 107.79C46.3529 107.327 46.6625 106.266 46.1991 105.421C35.8876 86.6122 19.4616 80.661 4.19594 89.9392L2.78692 90.7957L3.56177 92.2515C9.33873 103.103 13.8803 108.564 19.8387 111.103C20.7257 111.482 21.751 111.069 22.1288 110.182C22.5068 109.295 22.0943 108.27 21.2074 107.892C16.4301 105.856 12.4876 101.3 7.44783 92.1002C20.4586 85.1378 34.0586 90.5373 43.1378 107.099ZM67.9915 135.994C53.6101 149.887 37.6106 150.698 20.1257 132.194L18.9403 130.94L20.1813 129.74C34.0808 116.305 53.008 117.621 68.0476 133.54L69.2331 134.794L67.9915 135.994ZM23.8929 131.068C35.8115 120.643 51.2476 121.793 64.283 134.682C51.9388 145.822 38.9121 146.229 23.8929 131.068Z" fill="url(#paint0_linear_61_1016)"/>
<path id="Vector_2" fill-rule="evenodd" clip-rule="evenodd" d="M169.615 3.41822C170.817 2.92411 172.159 3.61326 172.5 4.86738C175.911 17.4151 174.059 26.9463 170.705 31.6551C169.502 33.3442 167.462 35.9165 164.605 38.0774C162.783 39.4558 159.123 41.2114 156.711 42.302C155.463 42.8665 154.014 42.1936 153.668 40.8679C149.045 23.1694 155.651 9.15794 169.615 3.41822ZM175.974 69.2684C180.876 65.8227 186.6 58.1644 188.061 45.7397C188.211 44.4556 187.224 43.3279 185.931 43.326C169.978 43.3027 158.113 53.4731 155.931 71.1138C155.768 72.4327 156.805 73.5705 158.134 73.566C160.667 73.5575 164.577 73.4631 166.885 73.0072C170.504 72.2919 173.531 70.9856 175.974 69.2684ZM183.946 91.6289C185.079 92.1898 185.464 93.5978 184.834 94.6952C180.002 103.108 176.319 107.306 170.077 110.581C166.479 112.467 162.742 112.056 158.599 111.599C158.346 111.571 158.09 111.543 157.833 111.515C154.893 111.198 150.34 109.496 147.584 108.377C146.31 107.859 145.812 106.336 146.547 105.175C156.379 89.6599 170.603 85.0272 183.946 91.6289ZM125.967 133.746C125.019 134.635 125.049 136.142 126.039 136.985C135.818 145.317 149.665 150.008 166.816 133.533C167.754 132.631 167.722 131.121 166.716 130.296C154.836 120.561 139.263 121.279 125.967 133.746Z" fill="url(#paint1_linear_61_1016)"/>
<path id="Vector_3" fill-rule="evenodd" clip-rule="evenodd" d="M68.7047 69.8652C67.3235 69.8652 66.0679 70.9952 66.0679 72.3764V92.341C66.0679 93.7223 67.3235 94.8523 68.7047 94.8523H128.598C129.979 94.8523 131.235 93.7223 131.235 92.341V72.3764C131.235 70.9952 129.979 69.8652 128.598 69.8652H113.405V4.07011C113.405 2.68891 112.275 1.55884 110.894 1.55884H93.315C92.1849 1.55884 91.5571 1.80997 90.5526 2.18666L67.8258 10.8505C66.5701 11.3528 66.0679 12.1062 66.0679 13.3618V34.5819C66.0679 35.5864 66.4446 36.0886 67.3235 36.0886C67.7002 36.0886 68.2024 35.9631 68.8303 35.712L83.8979 30.8151V69.8652H68.7047Z" fill="url(#paint2_linear_61_1016)"/>
</g>
<defs>
<linearGradient id="paint0_linear_61_1016" x1="35.0785" y1="0.269043" x2="35.0785" y2="146.269" gradientUnits="userSpaceOnUse">
<stop stop-color="#1A53A2"/>
<stop offset="1" stop-color="#002F70"/>
</linearGradient>
<linearGradient id="paint1_linear_61_1016" x1="156.676" y1="3.25728" x2="156.676" y2="144.568" gradientUnits="userSpaceOnUse">
<stop stop-color="#A3CEFF"/>
<stop offset="1" stop-color="#91C4FF"/>
</linearGradient>
<linearGradient id="paint2_linear_61_1016" x1="98.6515" y1="1.55884" x2="98.6515" y2="94.8523" gradientUnits="userSpaceOnUse">
<stop stop-color="#E8F6FF"/>
<stop offset="1" stop-color="#C9E2FF"/>
</linearGradient>
</defs>
</svg>
