<svg width="173" height="141" viewBox="0 0 173 141" fill="none" xmlns="http://www.w3.org/2000/svg">
<g id="6102a5a38dd424d99c6ff001_img-manifesto-02.svg" clip-path="url(#clip0_61_1007)">
<g id="Group">
<path id="Vector" fill-rule="evenodd" clip-rule="evenodd" d="M115.89 89.9783C104.342 89.9783 94.9895 99.391 94.9895 110.978C94.9895 122.567 104.342 131.978 115.89 131.978C127.439 131.978 136.791 122.567 136.791 110.978C136.791 99.391 127.439 89.9783 115.89 89.9783Z" fill="url(#paint0_linear_61_1007)"/>
<path id="Vector_2" fill-rule="evenodd" clip-rule="evenodd" d="M79.0035 110.978C79.0035 122.572 69.6456 131.978 58.1028 131.978C46.5601 131.978 37.2021 122.572 37.2021 110.978C37.2021 99.3841 46.5601 89.9783 58.1028 89.9783C66.4513 89.9783 73.6569 94.8991 77.0056 102.009L86.1249 96.2803C86.6577 95.9456 87.3351 95.9456 87.8679 96.2803L97.4991 102.33L95.7561 105.105L88.0519 100.265C87.4065 99.8597 86.5861 99.8597 85.9405 100.264L78.1818 105.13C78.7168 106.987 79.0035 108.949 79.0035 110.978ZM75.7269 110.978C75.7269 101.19 67.8321 93.2549 58.1028 93.2549C48.3734 93.2549 40.4787 101.19 40.4787 110.978C40.4787 120.766 48.3734 128.702 58.1028 128.702C67.8321 128.702 75.7269 120.766 75.7269 110.978Z" fill="url(#paint1_linear_61_1007)"/>
<path id="Vector_3" fill-rule="evenodd" clip-rule="evenodd" d="M142.013 70.4886H169.27C171.266 70.4886 172.883 72.1065 172.883 74.1026C172.883 76.0974 171.266 77.7158 169.27 77.7158H3.73053C1.73484 77.7158 0.117004 76.0974 0.117004 74.1026C0.117004 72.1065 1.73484 70.4886 3.73053 70.4886H28.0465C30.628 60.7261 40.5805 22.9904 42.1199 15.687C43.8914 7.28241 53.752 3.87535 61.6459 5.69386C69.5398 7.51237 93.3219 13.3114 93.3219 13.3114C93.3219 13.3114 105.581 4.19417 114.579 5.69386C123.578 7.19365 126.806 11.0131 128.194 17.292C129.401 22.752 139.421 60.6858 142.013 70.4886Z" fill="url(#paint2_linear_61_1007)"/>
</g>
</g>
<defs>
<linearGradient id="paint0_linear_61_1007" x1="115.89" y1="89.9783" x2="115.89" y2="131.978" gradientUnits="userSpaceOnUse">
<stop stop-color="#A3CEFF"/>
<stop offset="1" stop-color="#91C4FF"/>
</linearGradient>
<linearGradient id="paint1_linear_61_1007" x1="67.3506" y1="89.9783" x2="67.3506" y2="131.978" gradientUnits="userSpaceOnUse">
<stop stop-color="#1A53A2"/>
<stop offset="1" stop-color="#002F70"/>
</linearGradient>
<linearGradient id="paint2_linear_61_1007" x1="28.4149" y1="69.7725" x2="140.613" y2="69.7725" gradientUnits="userSpaceOnUse">
<stop stop-color="#E8F6FF"/>
<stop offset="1" stop-color="#C9E2FF"/>
</linearGradient>
<clipPath id="clip0_61_1007">
<rect width="172.766" height="140" fill="white" transform="translate(0.117004 0.269043)"/>
</clipPath>
</defs>
</svg>
