<svg width="145" height="141" viewBox="0 0 145 141" fill="none" xmlns="http://www.w3.org/2000/svg">
<g id="6102a5bfa8aecb354de3e569_img-manifesto-05.svg" clip-path="url(#clip0_62_2045)">
<path id="Vector" fill-rule="evenodd" clip-rule="evenodd" d="M128.333 33.6025C129.254 33.6025 130 32.8563 130 31.9358V28.1233C130 27.4675 130.56 26.9358 131.25 26.9358C131.94 26.9358 132.5 27.4675 132.5 28.1233V31.9358C132.5 32.8563 133.246 33.6025 134.167 33.6025H137.979C138.635 33.6025 139.167 34.1621 139.167 34.8525C139.167 35.5428 138.635 36.1025 137.979 36.1025H134.167C133.246 36.1025 132.5 36.8486 132.5 37.7691V41.5816C132.5 42.2375 131.94 42.7691 131.25 42.7691C130.56 42.7691 130 42.2375 130 41.5816V37.7691C130 36.8486 129.254 36.1025 128.333 36.1025H124.521C123.865 36.1025 123.333 35.5428 123.333 34.8525C123.333 34.1621 123.865 33.6025 124.521 33.6025H128.333Z" fill="url(#paint0_linear_62_2045)"/>
<path id="Vector_2" d="M141.847 137.769H3.15264C2.33193 137.769 1.66663 138.329 1.66663 139.019C1.66663 139.709 2.33193 140.269 3.15264 140.269H141.847C142.668 140.269 143.333 139.709 143.333 139.019C143.333 138.329 142.668 137.769 141.847 137.769Z" fill="url(#paint1_linear_62_2045)"/>
<g id="Group">
<path id="Vector_3" fill-rule="evenodd" clip-rule="evenodd" d="M94.1666 27.769C95.0875 27.769 95.8333 27.0228 95.8333 26.1023V22.2898C95.8333 21.634 96.3933 21.1023 97.0833 21.1023C97.7733 21.1023 98.3333 21.634 98.3333 22.2898V26.1023C98.3333 27.0228 99.0791 27.769 100 27.769H103.812C104.468 27.769 105 28.3286 105 29.019C105 29.7093 104.468 30.269 103.812 30.269H100C99.0791 30.269 98.3333 31.0151 98.3333 31.9356V35.7481C98.3333 36.404 97.7733 36.9356 97.0833 36.9356C96.3933 36.9356 95.8333 36.404 95.8333 35.7481V31.9356C95.8333 31.0151 95.0875 30.269 94.1666 30.269H90.3541C89.6983 30.269 89.1666 29.7093 89.1666 29.019C89.1666 28.3286 89.6983 27.769 90.3541 27.769H94.1666Z" fill="url(#paint2_linear_62_2045)"/>
<path id="Vector_4" fill-rule="evenodd" clip-rule="evenodd" d="M109.167 6.93571C110.087 6.93571 110.833 6.18952 110.833 5.26904V1.45654C110.833 0.800705 111.393 0.269043 112.083 0.269043C112.773 0.269043 113.333 0.800705 113.333 1.45654V5.26904C113.333 6.18952 114.079 6.93571 115 6.93571H118.812C119.468 6.93571 120 7.49535 120 8.18571C120 8.87604 119.468 9.43571 118.812 9.43571H115C114.079 9.43571 113.333 10.1819 113.333 11.1024V14.9149C113.333 15.5707 112.773 16.1024 112.083 16.1024C111.393 16.1024 110.833 15.5707 110.833 14.9149V11.1024C110.833 10.1819 110.087 9.43571 109.167 9.43571H105.354C104.698 9.43571 104.167 8.87604 104.167 8.18571C104.167 7.49535 104.698 6.93571 105.354 6.93571H109.167Z" fill="url(#paint3_linear_62_2045)"/>
<path id="Vector_5" fill-rule="evenodd" clip-rule="evenodd" d="M75.8333 130.269C75.8333 131.19 76.5795 131.936 77.5 131.936H97.5C98.4208 131.936 99.1666 131.19 99.1666 130.269V63.6025C99.1666 62.682 98.4208 61.9358 97.5 61.9358H77.5C76.5795 61.9358 75.8333 62.682 75.8333 63.6025V130.269Z" fill="url(#paint4_linear_62_2045)"/>
<path id="Vector_6" fill-rule="evenodd" clip-rule="evenodd" d="M15.8333 130.269C15.8333 131.19 16.5795 131.936 17.5 131.936H37.5C38.4205 131.936 39.1666 131.19 39.1666 130.269V30.269C39.1666 29.3485 38.4205 28.6023 37.5 28.6023H17.5C16.5795 28.6023 15.8333 29.3485 15.8333 30.269V130.269Z" fill="url(#paint5_linear_62_2045)"/>
<path id="Vector_7" fill-rule="evenodd" clip-rule="evenodd" d="M45.8333 130.269C45.8333 131.19 46.5795 131.936 47.5 131.936H67.5C68.4205 131.936 69.1666 131.19 69.1666 130.269V85.269C69.1666 84.3481 68.4205 83.6023 67.5 83.6023H47.5C46.5795 83.6023 45.8333 84.3481 45.8333 85.269V130.269Z" fill="url(#paint6_linear_62_2045)"/>
<path id="Vector_8" fill-rule="evenodd" clip-rule="evenodd" d="M105.833 130.269C105.833 131.19 106.579 131.936 107.5 131.936H127.5C128.421 131.936 129.167 131.19 129.167 130.269V95.269C129.167 94.3481 128.421 93.6023 127.5 93.6023H107.5C106.579 93.6023 105.833 94.3481 105.833 95.269V130.269Z" fill="url(#paint7_linear_62_2045)"/>
</g>
</g>
<defs>
<linearGradient id="paint0_linear_62_2045" x1="131.25" y1="26.9358" x2="131.25" y2="42.7691" gradientUnits="userSpaceOnUse">
<stop stop-color="#1A53A2"/>
<stop offset="1" stop-color="#002F70"/>
</linearGradient>
<linearGradient id="paint1_linear_62_2045" x1="2.08329" y1="139.019" x2="142.5" y2="139.436" gradientUnits="userSpaceOnUse">
<stop stop-color="#1A53A2"/>
<stop offset="1" stop-color="#002F70"/>
</linearGradient>
<linearGradient id="paint2_linear_62_2045" x1="97.0833" y1="21.1023" x2="97.0833" y2="36.9356" gradientUnits="userSpaceOnUse">
<stop stop-color="#1A53A2"/>
<stop offset="1" stop-color="#002F70"/>
</linearGradient>
<linearGradient id="paint3_linear_62_2045" x1="112.083" y1="0.269043" x2="112.083" y2="16.1024" gradientUnits="userSpaceOnUse">
<stop stop-color="#1A53A2"/>
<stop offset="1" stop-color="#002F70"/>
</linearGradient>
<linearGradient id="paint4_linear_62_2045" x1="87.5" y1="61.9358" x2="87.5" y2="131.936" gradientUnits="userSpaceOnUse">
<stop stop-color="#A3CEFF"/>
<stop offset="1" stop-color="#91C4FF"/>
</linearGradient>
<linearGradient id="paint5_linear_62_2045" x1="27.5" y1="28.6023" x2="27.5" y2="131.936" gradientUnits="userSpaceOnUse">
<stop stop-color="#E8F6FF"/>
<stop offset="1" stop-color="#C9E2FF"/>
</linearGradient>
<linearGradient id="paint6_linear_62_2045" x1="57.5" y1="83.6023" x2="57.5" y2="131.936" gradientUnits="userSpaceOnUse">
<stop stop-color="#E8F6FF"/>
<stop offset="1" stop-color="#C9E2FF"/>
</linearGradient>
<linearGradient id="paint7_linear_62_2045" x1="117.5" y1="93.6023" x2="117.5" y2="131.936" gradientUnits="userSpaceOnUse">
<stop stop-color="#A3CEFF"/>
<stop offset="1" stop-color="#91C4FF"/>
</linearGradient>
<clipPath id="clip0_62_2045">
<rect width="145" height="140" fill="white" transform="translate(0 0.269043)"/>
</clipPath>
</defs>
</svg>
