<svg width="145" height="141" viewBox="0 0 145 141" fill="none" xmlns="http://www.w3.org/2000/svg">
<g id="6103a8da50daf7e45eb44fc3_img-manifesto-06.svg">
<g id="Group">
<path id="Vector" fill-rule="evenodd" clip-rule="evenodd" d="M7.65415 79.522C7.58057 78.5715 8.34158 77.769 9.29508 77.769H31.4334C32.7022 77.769 33.861 77.0486 34.4225 75.9109C34.9841 74.7731 34.851 73.4152 34.0792 72.4081C31.5446 69.1005 29.7262 65.2595 29.7262 61.934C29.7262 59.2958 30.6498 57.0335 32.2031 55.445C33.7368 53.8765 36.0753 52.769 39.2942 52.769C42.5132 52.769 44.8517 53.8765 46.3854 55.445C47.9386 57.0335 48.8623 59.2958 48.8623 61.934C48.8623 65.2595 47.0439 69.1005 44.5092 72.4081C43.7375 73.4152 43.6044 74.7731 44.166 75.9109C44.7275 77.0486 45.8863 77.769 47.1551 77.769H67.4581C68.3786 77.769 69.1247 78.5151 69.1247 79.4356V91.0865C69.1247 92.3198 67.826 93.1315 66.6686 92.7048C64.563 91.9273 62.3327 91.4415 60.0701 91.4415C55.8747 91.4415 51.9063 92.929 48.9727 95.7981C46.0191 98.6856 44.3127 102.779 44.3127 107.6C44.3126 112.42 46.0191 116.513 48.9727 119.401C51.9063 122.27 55.8747 123.758 60.0701 123.758C62.3327 123.758 64.563 123.271 66.6686 122.495C67.826 122.067 69.1247 122.879 69.1247 124.112V137.599C69.1247 138.552 68.3222 139.313 67.3716 139.24C35.5288 136.775 10.1189 111.365 7.65415 79.522Z" fill="url(#paint0_linear_61_1044)"/>
<path id="Vector_2" fill-rule="evenodd" clip-rule="evenodd" d="M134.682 67.6905C134.735 68.1782 134.35 68.6025 133.859 68.6025H113.567C111.347 68.6025 109.318 69.863 108.336 71.8541C107.353 73.8452 107.586 76.2215 108.937 77.984C111.328 81.1053 112.774 84.4098 112.774 86.9373C112.774 88.9831 112.066 90.599 111.009 91.679C109.987 92.724 108.314 93.6023 105.706 93.6023C103.098 93.6023 101.424 92.724 100.402 91.679C99.3467 90.599 98.6375 88.9831 98.6375 86.9373C98.6375 84.4098 100.083 81.1053 102.475 77.984C103.826 76.2215 104.058 73.8452 103.076 71.8541C102.093 69.863 100.066 68.6025 97.845 68.6025H79.2087C78.7485 68.6025 78.3754 68.2295 78.3754 67.7692V59.9783C78.3754 59.4115 78.9292 59.01 79.4757 59.1605C81.2214 59.6416 83.0529 59.9303 84.93 59.9303C89.7167 59.9303 94.3317 58.2284 97.775 54.8612C101.254 51.4599 103.187 46.7014 103.187 41.272C103.187 35.8426 101.254 31.0841 97.775 27.6828C94.3317 24.3157 89.7167 22.6138 84.93 22.6138C83.0529 22.6138 81.2214 22.9024 79.4757 23.3835C78.9292 23.534 78.3754 23.1326 78.3754 22.5658V13.1184C78.3754 12.6278 78.7997 12.2431 79.2875 12.2955C108.416 15.4206 131.557 38.5619 134.682 67.6905ZM135.705 71.1025C136.658 71.1025 137.42 70.3038 137.347 69.3531C137.327 69.1025 137.306 68.8523 137.284 68.6025C134.505 37.3586 109.619 12.473 78.3754 9.69404C78.1256 9.67187 77.8754 9.65104 77.6247 9.63162C76.6741 9.55812 75.8754 10.3194 75.8754 11.2729V24.7588C75.8754 25.9925 77.1742 26.804 78.3316 26.377C78.3462 26.3716 78.3608 26.3662 78.3754 26.3609C80.4681 25.5934 82.6832 25.1138 84.93 25.1138C89.1258 25.1138 93.0942 26.6019 96.0275 29.4704C98.9808 32.3583 100.687 36.4515 100.687 41.272C100.687 46.0925 98.9808 50.1857 96.0275 53.0737C93.0942 55.9422 89.1258 57.4303 84.93 57.4303C82.6832 57.4303 80.4681 56.9507 78.3754 56.1832C78.3608 56.1778 78.3462 56.1725 78.3316 56.167C77.1742 55.74 75.8754 56.5515 75.8754 57.7852V69.4359C75.8754 70.3563 76.6216 71.1025 77.5421 71.1025H97.845C99.1142 71.1025 100.272 71.8228 100.834 72.9606C101.396 74.0984 101.262 75.4562 100.491 76.4634C97.9558 79.771 96.1375 83.6123 96.1375 86.9373C96.1375 89.5756 97.0617 91.8381 98.615 93.4265C100.148 94.9948 102.487 96.1023 105.706 96.1023C108.925 96.1023 111.263 94.9948 112.797 93.4265C114.35 91.8381 115.274 89.5756 115.274 86.9373C115.274 83.6123 113.456 79.771 110.921 76.4634C110.149 75.4562 110.016 74.0984 110.577 72.9606C111.139 71.8228 112.298 71.1025 113.567 71.1025H135.705Z" fill="url(#paint1_linear_61_1044)"/>
<path id="Vector_3" fill-rule="evenodd" clip-rule="evenodd" d="M77.6286 139.323C76.6779 139.397 75.8754 138.637 75.8754 137.682V115.544C75.8754 114.276 75.1551 113.117 74.0173 112.555C72.8796 111.994 71.5217 112.127 70.5146 112.898C67.2069 115.433 63.366 117.252 60.0404 117.252C57.4022 117.252 55.14 116.328 53.5515 114.775C51.9829 113.241 50.8755 110.902 50.8755 107.683C50.8755 104.465 51.9829 102.126 53.5515 100.592C55.14 99.039 57.4022 98.1157 60.0404 98.1157C63.366 98.1157 67.2069 99.934 70.5146 102.468C71.5217 103.24 72.8796 103.373 74.0173 102.812C75.1551 102.25 75.8754 101.092 75.8754 99.8224V79.5197C75.8754 78.5992 76.6216 77.853 77.5421 77.853H89.1925C90.4267 77.853 91.2383 79.1518 90.8108 80.3092C90.0342 82.4148 89.5475 84.6449 89.5475 86.9074C89.5475 91.1032 91.0358 95.0715 93.9042 98.0049C96.7925 100.959 100.885 102.665 105.706 102.665C110.527 102.665 114.62 100.959 117.507 98.0049C120.376 95.0715 121.864 91.1032 121.864 86.9074C121.864 84.6449 121.377 82.4148 120.601 80.3092C120.174 79.1518 120.985 77.853 122.219 77.853H135.705C136.658 77.853 137.42 78.6555 137.346 79.6061C134.882 111.449 109.472 136.859 77.6286 139.323Z" fill="url(#paint2_linear_61_1044)"/>
<path id="Vector_4" fill-rule="evenodd" clip-rule="evenodd" d="M67.3719 9.63163C68.3226 9.55805 69.1251 10.319 69.1251 11.2725V33.4109C69.1251 34.6796 69.8454 35.8385 70.9831 36.4C72.1209 36.9615 73.4787 36.8285 74.4859 36.0567C77.7936 33.522 81.6345 31.7036 84.9601 31.7036C87.5984 31.7036 89.8601 32.6274 91.4492 34.1805C93.0176 35.7143 94.1251 38.0528 94.1251 41.2718C94.1251 44.4906 93.0176 46.8291 91.4492 48.3629C89.8601 49.9161 87.5984 50.8398 84.9601 50.8398C81.6345 50.8398 77.7936 49.0214 74.4859 46.4867C73.4787 45.715 72.1209 45.582 70.9831 46.1435C69.8453 46.705 69.1251 47.8638 69.1251 49.1325V69.4355C69.1251 70.356 68.3789 71.1022 67.4584 71.1022H55.8077C54.5741 71.1022 53.7625 69.8035 54.1896 68.646C54.9665 66.5405 55.4528 64.3101 55.4528 62.0475C55.4528 57.8521 53.9647 53.8838 51.0962 50.9501C48.2082 47.9965 44.1151 46.2901 39.2945 46.2901C34.474 46.2901 30.3808 47.9965 27.4929 50.9501C24.6244 53.8838 23.1363 57.8521 23.1363 62.0475C23.1363 64.3101 23.6226 66.5405 24.3995 68.646C24.8266 69.8035 24.0151 71.1022 22.7813 71.1022H9.29539C8.34189 71.1022 7.58087 70.2997 7.65446 69.349C10.1192 37.5063 35.5291 12.0964 67.3719 9.63163Z" fill="url(#paint3_linear_61_1044)"/>
</g>
</g>
<defs>
<linearGradient id="paint0_linear_61_1044" x1="38.3334" y1="139.351" x2="38.3334" y2="52.769" gradientUnits="userSpaceOnUse">
<stop stop-color="#E8F6FF"/>
<stop offset="1" stop-color="#C9E2FF"/>
</linearGradient>
<linearGradient id="paint1_linear_61_1044" x1="106.667" y1="9.51987" x2="106.667" y2="96.1023" gradientUnits="userSpaceOnUse">
<stop stop-color="#1A53A2"/>
<stop offset="1" stop-color="#002F70"/>
</linearGradient>
<linearGradient id="paint2_linear_61_1044" x1="137.458" y1="108.644" x2="50.8755" y2="108.644" gradientUnits="userSpaceOnUse">
<stop stop-color="#A3CEFF"/>
<stop offset="1" stop-color="#91C4FF"/>
</linearGradient>
<linearGradient id="paint3_linear_61_1044" x1="7.54237" y1="40.3109" x2="94.1251" y2="40.3109" gradientUnits="userSpaceOnUse">
<stop stop-color="#E8F6FF"/>
<stop offset="1" stop-color="#C9E2FF"/>
</linearGradient>
</defs>
</svg>
