<svg width="1440" height="861" viewBox="0 0 1440 861" fill="none" xmlns="http://www.w3.org/2000/svg">
<path d="M1395 0H45V800H1395V0Z" fill="#F7F9FD"/>
<path d="M524.277 76.2224C528.419 69.6936 526.485 61.043 519.956 56.9006C513.428 52.7582 504.777 54.6927 500.635 61.2214L472.508 105.551C468.365 112.08 470.3 120.731 476.829 124.873C483.357 129.015 492.008 127.081 496.15 120.552L524.277 76.2224Z" fill="#DBECFF"/>
<path d="M572.762 -0.193851C576.904 -6.72257 574.97 -15.3732 568.441 -19.5156C561.913 -23.658 553.262 -21.7235 549.12 -15.1948L520.993 29.135C516.85 35.6637 518.785 44.3144 525.314 48.4568C531.842 52.5992 540.493 50.6647 544.635 44.136L572.762 -0.193851Z" fill="#F8FFFF"/>
<path d="M588.45 116.939C592.592 110.41 590.658 101.76 584.129 97.6174C577.601 93.475 568.95 95.4095 564.808 101.938L536.681 146.268C532.538 152.797 534.473 161.447 541.002 165.59C547.53 169.732 556.181 167.798 560.323 161.269L588.45 116.939Z" fill="#E8F6FF"/>
<path d="M460.104 35.5056C464.247 28.9769 462.312 20.3262 455.783 16.1838C449.255 12.0414 440.604 13.9759 436.462 20.5046L408.335 64.8345C404.192 71.3632 406.127 80.0138 412.656 84.1562C419.184 88.2986 427.835 86.3641 431.977 79.8354L460.104 35.5056Z" fill="#FAFFFF"/>
<path d="M508.59 -40.9107C512.732 -47.4394 510.798 -56.09 504.269 -60.2324C497.741 -64.3748 489.09 -62.4403 484.948 -55.9116L456.821 -11.5818C452.678 -5.05309 454.613 3.59756 461.142 7.73996C467.67 11.8824 476.321 9.94787 480.463 3.41915L508.59 -40.9107Z" fill="#FBFFFF"/>
<path d="M169.193 494.002C173.336 487.474 171.401 478.823 164.872 474.68C158.344 470.538 149.693 472.473 145.551 479.001L117.424 523.331C113.281 529.86 115.216 538.51 121.745 542.653C128.273 546.795 136.924 544.861 141.066 538.332L169.193 494.002Z" fill="#F0FEFF"/>
<path d="M120.708 570.419C124.85 563.891 122.916 555.24 116.387 551.097C109.858 546.955 101.208 548.89 97.0654 555.418L68.9386 599.748C64.7962 606.277 66.7307 614.927 73.2594 619.07C79.7882 623.212 88.4388 621.278 92.5812 614.749L120.708 570.419Z" fill="#F7FFFF"/>
<path d="M652.623 157.656C656.766 151.128 654.831 142.477 648.302 138.334C641.774 134.192 633.123 136.127 628.981 142.655L600.854 186.985C596.711 193.514 598.646 202.164 605.175 206.307C611.703 210.449 620.354 208.515 624.496 201.986L652.623 157.656Z" fill="#EAF8FF"/>
<path d="M604.137 234.072C608.279 227.544 606.345 218.893 599.816 214.75C593.288 210.608 584.637 212.543 580.495 219.071L552.368 263.401C548.225 269.93 550.16 278.58 556.689 282.723C563.217 286.865 571.868 284.931 576.01 278.402L604.137 234.072Z" fill="#F7FFFF"/>
<path d="M616.669 285.25C620.811 278.722 618.877 270.071 612.348 265.928C605.82 261.786 597.169 263.721 593.026 270.249L564.9 314.579C560.757 321.108 562.692 329.758 569.22 333.901C575.749 338.043 584.4 336.109 588.542 329.58L616.669 285.25Z" fill="#EFF9FE"/>
<path d="M411.619 111.922C415.761 105.393 413.827 96.7423 407.298 92.5999C400.77 88.4575 392.119 90.392 387.977 96.9207L359.85 141.25C355.707 147.779 357.642 156.43 364.171 160.572C370.699 164.715 379.35 162.78 383.492 156.251L411.619 111.922Z" fill="#F5FFFF"/>
<path d="M363.134 188.338C367.276 181.81 365.342 173.159 358.813 169.016C352.285 164.874 343.634 166.809 339.492 173.337L311.365 217.667C307.222 224.196 309.157 232.846 315.686 236.989C322.214 241.131 330.865 239.197 335.007 232.668L363.134 188.338Z" fill="#EFF9FE"/>
<path d="M716.795 198.373C720.938 191.845 719.003 183.194 712.474 179.051C705.946 174.909 697.295 176.844 693.153 183.372L665.026 227.702C660.883 234.231 662.818 242.881 669.347 247.024C675.875 251.166 684.526 249.232 688.668 242.703L716.795 198.373Z" fill="#EDFBFF"/>
<path d="M845.141 279.806C849.284 273.278 847.349 264.627 840.82 260.484C834.292 256.342 825.641 258.277 821.499 264.805L793.372 309.135C789.229 315.664 791.164 324.314 797.693 328.457C804.221 332.599 812.872 330.665 817.014 324.136L845.141 279.806Z" fill="#F5FFFF"/>
<path d="M973.486 361.24C977.628 354.712 975.694 346.061 969.165 341.918C962.637 337.776 953.986 339.711 949.844 346.239L921.717 390.569C917.574 397.098 919.509 405.748 926.038 409.891C932.566 414.033 941.217 412.099 945.359 405.57L973.486 361.24Z" fill="#F5FFFF"/>
<path d="M1166 483.391C1170.14 476.863 1168.21 468.212 1161.68 464.069C1155.15 459.927 1146.5 461.862 1142.36 468.39L1114.23 512.72C1110.09 519.249 1112.02 527.899 1118.55 532.042C1125.08 536.184 1133.73 534.25 1137.88 527.721L1166 483.391Z" fill="#F9FFFF"/>
<path d="M925.001 437.656C929.143 431.128 927.209 422.477 920.68 418.334C914.152 414.192 905.501 416.127 901.359 422.655L873.232 466.985C869.089 473.514 871.024 482.164 877.553 486.307C884.081 490.449 892.732 488.515 896.874 481.986L925.001 437.656Z" fill="#F5FFFF"/>
<path d="M893.626 203.39C897.768 196.862 895.834 188.211 889.305 184.068C882.777 179.926 874.126 181.861 869.984 188.389L841.857 232.719C837.714 239.248 839.649 247.898 846.178 252.041C852.706 256.183 861.357 254.249 865.499 247.72L893.626 203.39Z" fill="#F5FFFF"/>
<path d="M957.798 244.107C961.94 237.579 960.006 228.928 953.477 224.785C946.949 220.643 938.298 222.578 934.156 229.106L906.029 273.436C901.886 279.965 903.821 288.615 910.35 292.758C916.878 296.9 925.529 294.966 929.671 288.437L957.798 244.107Z" fill="#F2FFFF"/>
<path d="M1086.14 325.541C1090.28 319.013 1088.35 310.362 1081.82 306.219C1075.29 302.077 1066.64 304.012 1062.5 310.54L1034.37 354.87C1030.23 361.399 1032.16 370.049 1038.69 374.192C1045.22 378.334 1053.87 376.4 1058.02 369.871L1086.14 325.541Z" fill="#E9F7FF"/>
<path d="M1278.66 447.691C1282.8 441.163 1280.87 432.512 1274.34 428.369C1267.81 424.227 1259.16 426.162 1255.02 432.69L1226.89 477.02C1222.75 483.549 1224.68 492.199 1231.21 496.342C1237.74 500.484 1246.39 498.55 1250.54 492.021L1278.66 447.691Z" fill="#F4FFFF"/>
<path d="M1006.28 167.691C1010.43 161.163 1008.49 152.512 1001.96 148.369C995.435 144.227 986.784 146.162 982.642 152.69L954.515 197.02C950.372 203.549 952.307 212.199 958.836 216.342C965.364 220.484 974.015 218.55 978.157 212.021L1006.28 167.691Z" fill="#F7FFFF"/>
<path d="M1070.45 208.408C1074.59 201.88 1072.66 193.229 1066.13 189.086C1059.6 184.944 1050.95 186.879 1046.81 193.407L1018.68 237.737C1014.54 244.266 1016.47 252.916 1023 257.059C1029.53 261.201 1038.18 259.267 1042.33 252.738L1070.45 208.408Z" fill="#F1FFFF"/>
<path d="M1118.94 131.992C1123.08 125.464 1121.15 116.813 1114.62 112.671C1108.09 108.528 1099.44 110.463 1095.3 116.991L1067.17 161.321C1063.03 167.85 1064.96 176.5 1071.49 180.643C1078.02 184.785 1086.67 182.851 1090.82 176.322L1118.94 131.992Z" fill="#F4FFFF"/>
<path d="M1134.63 249.125C1138.77 242.597 1136.84 233.946 1130.31 229.803C1123.78 225.661 1115.13 227.596 1110.99 234.124L1082.86 278.454C1078.72 284.983 1080.65 293.633 1087.18 297.776C1093.71 301.918 1102.36 299.984 1106.51 293.455L1134.63 249.125Z" fill="#F8FFFF"/>
<path d="M1198.8 289.842C1202.94 283.314 1201.01 274.663 1194.48 270.521C1187.95 266.378 1179.3 268.313 1175.16 274.841L1147.03 319.171C1142.89 325.7 1144.82 334.35 1151.35 338.493C1157.88 342.635 1166.53 340.701 1170.68 334.172L1198.8 289.842Z" fill="#F4FFFF"/>
<path d="M1262.97 330.558C1267.11 324.029 1265.18 315.379 1258.65 311.236C1252.12 307.094 1243.47 309.029 1239.33 315.557L1211.2 359.887C1207.06 366.416 1208.99 375.066 1215.52 379.209C1222.05 383.351 1230.7 381.417 1234.85 374.888L1262.97 330.558Z" fill="#F5FFFF"/>
<path d="M1183.11 172.709C1187.25 166.18 1185.32 157.53 1178.79 153.387C1172.26 149.245 1163.61 151.18 1159.47 157.708L1131.34 202.038C1127.2 208.567 1129.13 217.217 1135.66 221.36C1142.19 225.502 1150.84 223.568 1154.99 217.039L1183.11 172.709Z" fill="#F5FFFF"/>
<path d="M1247.29 213.426C1251.43 206.898 1249.5 198.247 1242.97 194.104C1236.44 189.962 1227.79 191.897 1223.65 198.425L1195.52 242.755C1191.38 249.284 1193.31 257.934 1199.84 262.077C1206.37 266.219 1215.02 264.285 1219.17 257.756L1247.29 213.426Z" fill="#F4FFFF"/>
<path d="M1311.46 254.142C1315.6 247.614 1313.67 238.963 1307.14 234.82C1300.61 230.678 1291.96 232.613 1287.82 239.141L1259.69 283.471C1255.55 290 1257.48 298.65 1264.01 302.793C1270.54 306.935 1279.19 305.001 1283.34 298.472L1311.46 254.142Z" fill="#F7FFFF"/>
<path d="M1344.26 60.5934C1348.4 54.0647 1346.47 45.4141 1339.94 41.2717C1333.41 37.1293 1324.76 39.0638 1320.62 45.5925L1292.49 89.9223C1288.35 96.451 1290.28 105.102 1296.81 109.244C1303.34 113.386 1311.99 111.452 1316.14 104.923L1344.26 60.5934Z" fill="#F8FFFF"/>
<path d="M1295.77 137.009C1299.91 130.481 1297.98 121.83 1291.45 117.687C1284.92 113.545 1276.27 115.48 1272.13 122.008L1244 166.338C1239.86 172.867 1241.79 181.517 1248.32 185.66C1254.85 189.802 1263.5 187.868 1267.65 181.339L1295.77 137.009Z" fill="#F7FFFF"/>
<path d="M1359.94 177.726C1364.08 171.198 1362.15 162.547 1355.62 158.405C1349.09 154.262 1340.44 156.197 1336.3 162.725L1308.17 207.055C1304.03 213.584 1305.96 222.234 1312.49 226.377C1319.02 230.519 1327.67 228.585 1331.82 222.056L1359.94 177.726Z" fill="#F4FFFF"/>
<path d="M1231.6 96.2927C1235.74 89.764 1233.81 81.1133 1227.28 76.9709C1220.75 72.8285 1212.1 74.763 1207.96 81.2918L1179.83 125.622C1175.69 132.15 1177.62 140.801 1184.15 144.943C1190.68 149.086 1199.33 147.151 1203.48 140.623L1231.6 96.2927Z" fill="#F7FFFF"/>
<path d="M1392.74 -15.8231C1396.88 -22.3518 1394.95 -31.0024 1388.42 -35.1448C1381.89 -39.2872 1373.24 -37.3527 1369.1 -30.824L1340.97 13.5058C1336.83 20.0345 1338.76 28.6852 1345.29 32.8276C1351.82 36.97 1360.47 35.0355 1364.62 28.5068L1392.74 -15.8231Z" fill="#FBFFFF"/>
<path d="M1103.25 14.8588C1107.39 8.33012 1105.46 -0.320526 1098.93 -4.46293C1092.4 -8.60533 1083.75 -6.67084 1079.61 -0.142125L1051.48 44.1877C1047.34 50.7164 1049.27 59.3671 1055.8 63.5095C1062.33 67.6519 1070.98 65.7174 1075.13 59.1887L1103.25 14.8588Z" fill="#F5FFFF"/>
<path d="M796.655 356.223C800.797 349.695 798.863 341.044 792.334 336.901C785.806 332.759 777.155 334.694 773.013 341.222L744.886 385.552C740.743 392.081 742.678 400.731 749.207 404.874C755.735 409.016 764.386 407.082 768.528 400.553L796.655 356.223Z" fill="#F5FFFF"/>
<path d="M860.828 396.94C864.97 390.412 863.036 381.761 856.507 377.618C849.979 373.476 841.328 375.411 837.185 381.939L809.059 426.269C804.916 432.798 806.851 441.448 813.379 445.591C819.908 449.733 828.559 447.799 832.701 441.27L860.828 396.94Z" fill="#EEFCFF"/>
<path d="M812.343 473.356C816.485 466.828 814.551 458.177 808.022 454.034C801.494 449.892 792.843 451.827 788.701 458.355L760.574 502.685C756.431 509.214 758.366 517.864 764.895 522.007C771.423 526.149 780.074 524.215 784.216 517.686L812.343 473.356Z" fill="#F2FFFF"/>
<path d="M539.965 193.355C544.107 186.827 542.173 178.176 535.644 174.033C529.116 169.891 520.465 171.826 516.323 178.354L488.196 222.684C484.053 229.213 485.988 237.863 492.517 242.006C499.045 246.148 507.696 244.214 511.838 237.685L539.965 193.355Z" fill="#EEFCFF"/>
<path d="M347.447 71.2048C351.589 64.6761 349.655 56.0255 343.126 51.8831C336.598 47.7407 327.947 49.6752 323.805 56.2039L295.678 100.534C291.535 107.062 293.47 115.713 299.999 119.855C306.527 123.998 315.178 122.063 319.32 115.535L347.447 71.2048Z" fill="#F8FFFF"/>
<path d="M298.961 147.621C303.103 141.093 301.169 132.442 294.64 128.299C288.112 124.157 279.461 126.092 275.318 132.62L247.192 176.95C243.049 183.479 244.984 192.129 251.512 196.272C258.041 200.414 266.692 198.48 270.834 191.951L298.961 147.621Z" fill="#F7FFFF"/>
<path d="M1004.86 595.506C1009 588.978 1007.07 580.327 1000.54 576.185C994.012 572.042 985.361 573.977 981.219 580.505L953.092 624.835C948.949 631.364 950.884 640.014 957.413 644.157C963.941 648.299 972.592 646.365 976.734 639.836L1004.86 595.506Z" fill="#EDFBFF"/>
<path d="M1133.2 676.94C1137.34 670.412 1135.41 661.761 1128.88 657.619C1122.35 653.476 1113.7 655.411 1109.56 661.939L1081.43 706.269C1077.29 712.798 1079.22 721.449 1085.75 725.591C1092.28 729.733 1100.93 727.799 1105.08 721.27L1133.2 676.94Z" fill="#E8F6FF"/>
<path d="M1261.55 758.374C1265.69 751.846 1263.76 743.195 1257.23 739.052C1250.7 734.91 1242.05 736.845 1237.91 743.373L1209.78 787.703C1205.64 794.232 1207.57 802.882 1214.1 807.025C1220.63 811.167 1229.28 809.233 1233.43 802.704L1261.55 758.374Z" fill="#F6FFFF"/>
<path d="M1358.52 605.541C1362.66 599.013 1360.73 590.362 1354.2 586.219C1347.67 582.077 1339.02 584.012 1334.88 590.54L1306.75 634.87C1302.61 641.399 1304.54 650.049 1311.07 654.192C1317.6 658.334 1326.25 656.4 1330.4 649.871L1358.52 605.541Z" fill="#EFF9FE"/>
<path d="M1197.38 717.657C1201.52 711.129 1199.59 702.478 1193.06 698.336C1186.53 694.193 1177.88 696.128 1173.74 702.656L1145.61 746.986C1141.47 753.515 1143.4 762.165 1149.93 766.308C1156.46 770.45 1165.11 768.516 1169.26 761.987L1197.38 717.657Z" fill="#DBECFF"/>
<path d="M1181.69 600.524C1185.83 593.996 1183.9 585.345 1177.37 581.203C1170.84 577.06 1162.19 578.995 1158.05 585.523L1129.92 629.853C1125.78 636.382 1127.71 645.032 1134.24 649.175C1140.77 653.317 1149.42 651.383 1153.57 644.854L1181.69 600.524Z" fill="#F4FFFF"/>
<path d="M1310.04 681.958C1314.18 675.43 1312.25 666.779 1305.72 662.636C1299.19 658.494 1290.54 660.429 1286.4 666.957L1258.27 711.287C1254.13 717.816 1256.06 726.466 1262.59 730.609C1269.12 734.751 1277.77 732.817 1281.92 726.288L1310.04 681.958Z" fill="#F5FFFF"/>
<path d="M1148.89 794.073C1153.03 787.545 1151.1 778.894 1144.57 774.751C1138.04 770.609 1129.39 772.544 1125.25 779.072L1097.12 823.402C1092.98 829.931 1094.91 838.581 1101.44 842.724C1107.97 846.866 1116.62 844.932 1120.77 838.403L1148.89 794.073Z" fill="#F4FFFF"/>
<path d="M1374.21 722.675C1378.35 716.146 1376.42 707.496 1369.89 703.353C1363.36 699.211 1354.71 701.146 1350.57 707.674L1322.44 752.004C1318.3 758.533 1320.23 767.183 1326.76 771.326C1333.29 775.468 1341.94 773.534 1346.09 767.005L1374.21 722.675Z" fill="#F8FFFF"/>
<path d="M250.476 224.037C254.618 217.509 252.684 208.858 246.155 204.715C239.627 200.573 230.976 202.508 226.834 209.036L198.707 253.366C194.564 259.895 196.499 268.545 203.028 272.688C209.556 276.83 218.207 274.896 222.349 268.367L250.476 224.037Z" fill="#F5FFFF"/>
<path d="M201.991 300.453C206.133 293.925 204.199 285.274 197.67 281.131C191.142 276.989 182.491 278.924 178.349 285.452L150.222 329.782C146.079 336.311 148.014 344.961 154.543 349.104C161.071 353.246 169.722 351.312 173.864 344.783L201.991 300.453Z" fill="#F0FEFF"/>
<path d="M283.274 30.488C287.416 23.9593 285.482 15.3087 278.953 11.1663C272.425 7.02385 263.774 8.95834 259.631 15.4871L231.505 59.8169C227.362 66.3456 229.297 74.9962 235.825 79.1386C242.354 83.281 251.005 81.3466 255.147 74.8178L283.274 30.488Z" fill="#F7FFFF"/>
<path d="M234.788 106.904C238.93 100.375 236.996 91.7247 230.467 87.5823C223.939 83.4399 215.288 85.3744 211.146 91.9031L183.019 136.233C178.876 142.762 180.811 151.412 187.34 155.555C193.868 159.697 202.519 157.763 206.661 151.234L234.788 106.904Z" fill="#ECFAFF"/>
<path d="M186.303 183.32C190.445 176.792 188.511 168.141 181.982 163.998C175.454 159.856 166.803 161.791 162.661 168.319L134.534 212.649C130.391 219.178 132.326 227.828 138.855 231.971C145.383 236.113 154.034 234.179 158.176 227.65L186.303 183.32Z" fill="#F8FFFF"/>
<path d="M170.616 66.1872C174.758 59.6585 172.824 51.0079 166.295 46.8655C159.767 42.7231 151.116 44.6576 146.974 51.1863L118.847 95.5161C114.704 102.045 116.639 110.695 123.168 114.838C129.696 118.98 138.347 117.046 142.489 110.517L170.616 66.1872Z" fill="#F9FFFF"/>
<path d="M122.131 142.603C126.273 136.075 124.339 127.424 117.81 123.281C111.281 119.139 102.631 121.074 98.4882 127.602L70.3614 171.932C66.219 178.461 68.1534 187.111 74.6822 191.254C81.2109 195.396 89.8615 193.462 94.0039 186.933L122.131 142.603Z" fill="#EFFDFF"/>
<path d="M137.818 259.736C141.961 253.208 140.026 244.557 133.497 240.414C126.969 236.272 118.318 238.207 114.176 244.735L86.0487 289.065C81.9063 295.594 83.8408 304.244 90.3695 308.387C96.8983 312.529 105.549 310.595 109.691 304.066L137.818 259.736Z" fill="#F3FFFF"/>
<path d="M442.994 346.187C447.136 339.659 445.202 331.008 438.673 326.865C432.145 322.723 423.494 324.658 419.352 331.186L391.225 375.516C387.082 382.045 389.017 390.695 395.546 394.838C402.074 398.98 410.725 397.046 414.867 390.517L442.994 346.187Z" fill="#F4FFFF"/>
<path d="M507.167 386.904C511.31 380.376 509.375 371.725 502.846 367.582C496.318 363.44 487.667 365.375 483.525 371.903L455.398 416.233C451.255 422.762 453.19 431.412 459.719 435.555C466.247 439.697 474.898 437.763 479.04 431.234L507.167 386.904Z" fill="#F5FFFF"/>
<path d="M635.512 468.338C639.654 461.81 637.72 453.159 631.191 449.016C624.663 444.874 616.012 446.809 611.87 453.337L583.743 497.667C579.6 504.196 581.535 512.846 588.064 516.989C594.592 521.131 603.243 519.197 607.385 512.668L635.512 468.338Z" fill="#E9F7FF"/>
<path d="M699.685 509.055C703.828 502.527 701.893 493.876 695.364 489.734C688.836 485.591 680.185 487.526 676.043 494.054L647.916 538.384C643.773 544.913 645.708 553.563 652.237 557.706C658.765 561.848 667.416 559.914 671.558 553.385L699.685 509.055Z" fill="#F5FFFF"/>
<path d="M828.031 590.489C832.173 583.961 830.239 575.31 823.71 571.167C817.182 567.025 808.531 568.96 804.388 575.488L776.262 619.818C772.119 626.347 774.054 634.997 780.582 639.14C787.111 643.282 795.762 641.348 799.904 634.819L828.031 590.489Z" fill="#EEFCFF"/>
<path d="M876.516 514.072C880.659 507.544 878.724 498.893 872.195 494.75C865.667 490.608 857.016 492.543 852.874 499.071L824.747 543.401C820.604 549.93 822.539 558.58 829.068 562.723C835.596 566.865 844.247 564.931 848.389 558.402L876.516 514.072Z" fill="#F7FFFF"/>
<path d="M583.871 478.8C588.013 472.271 586.079 463.621 579.55 459.478C573.022 455.336 564.371 457.271 560.229 463.799L532.102 508.129C527.959 514.658 529.894 523.308 536.423 527.451C542.951 531.593 551.602 529.659 555.744 523.13L583.871 478.8Z" fill="#F7FFFF"/>
<path d="M648.044 519.516C652.186 512.988 650.252 504.337 643.723 500.194C637.195 496.052 628.544 497.987 624.401 504.515L596.275 548.845C592.132 555.374 594.067 564.024 600.596 568.167C607.124 572.309 615.775 570.375 619.917 563.846L648.044 519.516Z" fill="#F5FFFF"/>
<path d="M712.217 560.233C716.36 553.705 714.425 545.054 707.896 540.911C701.368 536.769 692.717 538.704 688.575 545.232L660.448 589.562C656.305 596.091 658.24 604.741 664.769 608.884C671.297 613.026 679.948 611.092 684.09 604.563L712.217 560.233Z" fill="#F9FFFF"/>
<path d="M760.702 483.817C764.844 477.289 762.91 468.638 756.381 464.495C749.853 460.353 741.202 462.288 737.06 468.816L708.933 513.146C704.79 519.675 706.725 528.325 713.254 532.468C719.782 536.61 728.433 534.676 732.575 528.147L760.702 483.817Z" fill="#F1FFFF"/>
<path d="M840.562 641.667C844.704 635.139 842.77 626.488 836.241 622.345C829.713 618.203 821.062 620.138 816.92 626.666L788.793 670.996C784.65 677.525 786.585 686.175 793.114 690.318C799.642 694.46 808.293 692.526 812.435 685.997L840.562 641.667Z" fill="#EFF9FE"/>
<path d="M889.047 565.251C893.19 558.723 891.255 550.072 884.726 545.929C878.198 541.787 869.547 543.722 865.405 550.25L837.278 594.58C833.135 601.109 835.07 609.759 841.599 613.902C848.127 618.044 856.778 616.11 860.92 609.581L889.047 565.251Z" fill="#FAFFFF"/>
<path d="M486.901 631.632C491.044 625.104 489.109 616.453 482.58 612.31C476.052 608.168 467.401 610.103 463.259 616.631L435.132 660.961C430.989 667.49 432.924 676.14 439.453 680.283C445.981 684.425 454.632 682.491 458.774 675.962L486.901 631.632Z" fill="#F3FFFF"/>
<path d="M679.419 753.783C683.561 747.255 681.627 738.604 675.098 734.461C668.57 730.319 659.919 732.254 655.776 738.782L627.65 783.112C623.507 789.641 625.442 798.291 631.97 802.434C638.499 806.576 647.15 804.642 651.292 798.113L679.419 753.783Z" fill="#F5FFFF"/>
<path d="M422.728 590.915C426.87 584.387 424.936 575.736 418.407 571.593C411.879 567.451 403.228 569.386 399.086 575.914L370.959 620.244C366.816 626.773 368.751 635.423 375.28 639.566C381.808 643.708 390.459 641.774 394.601 635.245L422.728 590.915Z" fill="#F8FFFF"/>
<path d="M587.027 544.754C591.169 538.226 589.235 529.575 582.706 525.432C576.178 521.29 567.527 523.225 563.385 529.753L535.258 574.083C531.115 580.612 533.05 589.262 539.579 593.405C546.107 597.547 554.758 595.613 558.9 589.084L587.027 544.754Z" fill="#F3FFFF"/>
<path d="M358.555 550.198C362.697 543.67 360.763 535.019 354.234 530.876C347.706 526.734 339.055 528.669 334.912 535.197L306.786 579.527C302.643 586.056 304.578 594.706 311.106 598.849C317.635 602.991 326.286 601.057 330.428 594.528L358.555 550.198Z" fill="#FAFFFF"/>
<path d="M651.2 585.471C655.342 578.943 653.408 570.292 646.879 566.149C640.351 562.007 631.7 563.942 627.558 570.47L599.431 614.8C595.288 621.329 597.223 629.979 603.752 634.122C610.28 638.264 618.931 636.33 623.073 629.801L651.2 585.471Z" fill="#F9FFFF"/>
<path d="M538.542 621.171C542.685 614.643 540.75 605.992 534.221 601.849C527.693 597.707 519.042 599.642 514.9 606.17L486.773 650.5C482.63 657.029 484.565 665.679 491.094 669.822C497.622 673.964 506.273 672.03 510.415 665.501L538.542 621.171Z" fill="#F5FFFF"/>
<path d="M666.887 702.604C671.029 696.076 669.095 687.425 662.566 683.282C656.038 679.14 647.387 681.075 643.245 687.603L615.118 731.933C610.975 738.462 612.91 747.112 619.439 751.255C625.967 755.397 634.618 753.463 638.76 746.934L666.887 702.604Z" fill="#F5FFFF"/>
<path d="M438.416 708.048C442.558 701.52 440.624 692.869 434.095 688.726C427.567 684.584 418.916 686.519 414.774 693.047L386.647 737.377C382.504 743.906 384.439 752.556 390.968 756.699C397.496 760.841 406.147 758.907 410.289 752.378L438.416 708.048Z" fill="#F8FFFF"/>
<path d="M599.559 595.933C603.701 589.405 601.767 580.754 595.238 576.612C588.71 572.469 580.059 574.404 575.917 580.932L547.79 625.262C543.647 631.791 545.582 640.441 552.111 644.584C558.639 648.726 567.29 646.792 571.432 640.263L599.559 595.933Z" fill="#F7FFFF"/>
<path d="M535.386 555.216C539.529 548.688 537.594 540.037 531.065 535.894C524.537 531.752 515.886 533.687 511.744 540.215L483.617 584.545C479.474 591.074 481.409 599.724 487.938 603.867C494.466 608.009 503.117 606.075 507.259 599.546L535.386 555.216Z" fill="#F3FFFF"/>
<path d="M663.731 636.649C667.873 630.121 665.939 621.47 659.41 617.328C652.882 613.185 644.231 615.12 640.089 621.648L611.962 665.978C607.819 672.507 609.754 681.157 616.283 685.3C622.811 689.442 631.462 687.508 635.604 680.979L663.731 636.649Z" fill="#F5FFFF"/>
<path d="M374.243 667.331C378.386 660.803 376.451 652.152 369.922 648.009C363.394 643.867 354.743 645.802 350.601 652.33L322.474 696.66C318.331 703.189 320.266 711.839 326.795 715.982C333.323 720.124 341.974 718.19 346.116 711.661L374.243 667.331Z" fill="#EDFBFF"/>
<path d="M310.07 626.614C314.212 620.086 312.278 611.435 305.749 607.292C299.221 603.15 290.57 605.085 286.427 611.613L258.301 655.943C254.158 662.472 256.093 671.122 262.622 675.265C269.15 679.407 277.801 677.473 281.943 670.944L310.07 626.614Z" fill="#F1FFFF"/>
<path d="M261.585 703.03C265.727 696.502 263.793 687.851 257.264 683.708C250.736 679.566 242.085 681.501 237.943 688.029L209.816 732.359C205.673 738.888 207.608 747.538 214.137 751.681C220.665 755.823 229.316 753.889 233.458 747.36L261.585 703.03Z" fill="#F8FFFF"/>
<path d="M197.412 662.314C201.555 655.786 199.62 647.135 193.091 642.992C186.563 638.85 177.912 640.785 173.77 647.313L145.643 691.643C141.5 698.172 143.435 706.822 149.964 710.965C156.492 715.107 165.143 713.173 169.285 706.644L197.412 662.314Z" fill="#F0FEFF"/>
<path d="M133.239 621.597C137.382 615.069 135.447 606.418 128.919 602.276C122.39 598.133 113.739 600.068 109.597 606.596L81.4701 650.926C77.3277 657.455 79.2622 666.105 85.7909 670.248C92.3196 674.39 100.97 672.456 105.113 665.927L133.239 621.597Z" fill="#F1FFFF"/>
<path d="M245.897 585.897C250.039 579.369 248.105 570.718 241.576 566.575C235.048 562.433 226.397 564.368 222.255 570.896L194.128 615.226C189.985 621.755 191.92 630.405 198.449 634.548C204.977 638.69 213.628 636.756 217.77 630.227L245.897 585.897Z" fill="#F2FFFF"/>
<path d="M294.383 509.481C298.525 502.953 296.591 494.302 290.062 490.159C283.534 486.017 274.883 487.952 270.74 494.48L242.614 538.81C238.471 545.339 240.406 553.989 246.934 558.132C253.463 562.274 262.114 560.34 266.256 553.811L294.383 509.481Z" fill="#F8FFFF"/>
<path d="M649.467 91.7015C653.61 85.1728 651.675 76.5221 645.146 72.3797C638.618 68.2373 629.967 70.1718 625.825 76.7005L597.698 121.03C593.555 127.559 595.49 136.21 602.019 140.352C608.547 144.494 617.198 142.56 621.34 136.031L649.467 91.7015Z" fill="#E9F7FF"/>
<path d="M600.981 168.117C605.123 161.589 603.189 152.938 596.66 148.795C590.132 144.653 581.481 146.588 577.339 153.116L549.212 197.446C545.069 203.975 547.004 212.625 553.533 216.768C560.061 220.91 568.712 218.976 572.854 212.447L600.981 168.117Z" fill="#F4FFFF"/>
<path d="M552.496 244.533C556.638 238.005 554.704 229.354 548.175 225.211C541.647 221.069 532.996 223.004 528.854 229.532L500.727 273.862C496.584 280.391 498.519 289.041 505.048 293.184C511.576 297.326 520.227 295.392 524.369 288.863L552.496 244.533Z" fill="#E7F5FF"/>
<path d="M857.672 330.985C861.815 324.457 859.88 315.806 853.351 311.664C846.823 307.521 838.172 309.456 834.03 315.984L805.903 360.314C801.76 366.843 803.695 375.493 810.224 379.636C816.752 383.778 825.403 381.844 829.545 375.315L857.672 330.985Z" fill="#EFFDFF"/>
<path d="M954.642 178.152C958.784 171.624 956.85 162.973 950.321 158.83C943.793 154.688 935.142 156.623 931 163.151L902.873 207.481C898.73 214.01 900.665 222.66 907.194 226.803C913.722 230.945 922.373 229.011 926.515 222.482L954.642 178.152Z" fill="#F7FFFF"/>
<path d="M1018.82 218.869C1022.96 212.34 1021.02 203.69 1014.49 199.547C1007.97 195.405 999.315 197.34 995.172 203.868L967.046 248.198C962.903 254.727 964.838 263.377 971.366 267.52C977.895 271.662 986.546 269.728 990.688 263.199L1018.82 218.869Z" fill="#F1FFFF"/>
<path d="M1275.5 381.737C1279.64 375.209 1277.71 366.558 1271.18 362.415C1264.65 358.273 1256 360.208 1251.86 366.736L1223.73 411.066C1219.59 417.595 1221.52 426.245 1228.05 430.388C1234.58 434.53 1243.23 432.596 1247.38 426.067L1275.5 381.737Z" fill="#F5FFFF"/>
<path d="M1178.53 534.569C1182.67 528.041 1180.74 519.39 1174.21 515.247C1167.68 511.105 1159.03 513.04 1154.89 519.568L1126.76 563.898C1122.62 570.427 1124.55 579.077 1131.08 583.22C1137.61 587.362 1146.26 585.428 1150.41 578.899L1178.53 534.569Z" fill="#E7F5FF"/>
<path d="M1114.36 493.852C1118.5 487.324 1116.57 478.673 1110.04 474.53C1103.51 470.388 1094.86 472.323 1090.72 478.851L1062.59 523.181C1058.45 529.71 1060.38 538.36 1066.91 542.503C1073.44 546.645 1082.09 544.711 1086.24 538.182L1114.36 493.852Z" fill="#FAFFFF"/>
<path d="M1130.05 610.985C1134.19 604.457 1132.26 595.806 1125.73 591.664C1119.2 587.521 1110.55 589.456 1106.41 595.984L1078.28 640.314C1074.14 646.843 1076.07 655.493 1082.6 659.636C1089.13 663.778 1097.78 661.844 1101.93 655.315L1130.05 610.985Z" fill="#EAF8FF"/>
<path d="M1194.22 651.702C1198.36 645.174 1196.43 636.523 1189.9 632.38C1183.37 628.238 1174.72 630.173 1170.58 636.701L1142.45 681.031C1138.31 687.56 1140.24 696.21 1146.77 700.353C1153.3 704.495 1161.95 702.561 1166.1 696.032L1194.22 651.702Z" fill="#E9F6FF"/>
<path d="M1258.39 692.419C1262.53 685.891 1260.6 677.24 1254.07 673.097C1247.54 668.955 1238.89 670.89 1234.75 677.418L1206.62 721.748C1202.48 728.277 1204.41 736.927 1210.94 741.07C1217.47 745.212 1226.12 743.278 1230.27 736.749L1258.39 692.419Z" fill="#EFFDFF"/>
<path d="M1322.57 733.136C1326.71 726.608 1324.78 717.957 1318.25 713.815C1311.72 709.672 1303.07 711.607 1298.93 718.135L1270.8 762.465C1266.66 768.994 1268.59 777.644 1275.12 781.787C1281.65 785.929 1290.3 783.995 1294.45 777.466L1322.57 733.136Z" fill="#F9FFFF"/>
<path d="M1306.88 616.003C1311.02 609.475 1309.09 600.824 1302.56 596.682C1296.03 592.539 1287.38 594.474 1283.24 601.002L1255.11 645.332C1250.97 651.861 1252.9 660.511 1259.43 664.654C1265.96 668.796 1274.61 666.862 1278.76 660.333L1306.88 616.003Z" fill="#F3FFFF"/>
<path d="M1371.05 656.72C1375.19 650.192 1373.26 641.541 1366.73 637.398C1360.2 633.256 1351.55 635.191 1347.41 641.719L1319.28 686.049C1315.14 692.578 1317.07 701.228 1323.6 705.371C1330.13 709.513 1338.78 707.579 1342.93 701.05L1371.05 656.72Z" fill="#F5FFFF"/>
<path d="M921.845 371.702C925.987 365.174 924.053 356.523 917.524 352.38C910.996 348.238 902.345 350.173 898.203 356.701L870.076 401.031C865.933 407.56 867.868 416.21 874.397 420.353C880.925 424.495 889.576 422.561 893.718 416.032L921.845 371.702Z" fill="#EFFDFF"/>
<path d="M1067.3 142.453C1071.44 135.925 1069.51 127.274 1062.98 123.131C1056.45 118.989 1047.8 120.924 1043.66 127.452L1015.53 171.782C1011.39 178.311 1013.32 186.961 1019.85 191.104C1026.38 195.246 1035.03 193.312 1039.18 186.783L1067.3 142.453Z" fill="#F5FFFF"/>
<path d="M1131.47 183.17C1135.61 176.641 1133.68 167.991 1127.15 163.848C1120.62 159.706 1111.97 161.641 1107.83 168.169L1079.7 212.499C1075.56 219.028 1077.49 227.678 1084.02 231.821C1090.55 235.963 1099.2 234.029 1103.35 227.5L1131.47 183.17Z" fill="#F9FFFF"/>
<path d="M1195.64 223.887C1199.78 217.359 1197.85 208.708 1191.32 204.565C1184.79 200.423 1176.14 202.358 1172 208.886L1143.87 253.216C1139.73 259.745 1141.66 268.395 1148.19 272.538C1154.72 276.68 1163.37 274.746 1167.52 268.217L1195.64 223.887Z" fill="#F7FFFF"/>
<path d="M1244.13 147.471C1248.27 140.943 1246.34 132.292 1239.81 128.149C1233.28 124.007 1224.63 125.942 1220.49 132.47L1192.36 176.8C1188.22 183.329 1190.15 191.979 1196.68 196.122C1203.21 200.264 1211.86 198.33 1216.01 191.801L1244.13 147.471Z" fill="#F3FFFF"/>
<path d="M1259.82 264.603C1263.96 258.075 1262.03 249.424 1255.5 245.282C1248.97 241.139 1240.32 243.074 1236.18 249.602L1208.05 293.932C1203.91 300.461 1205.84 309.112 1212.37 313.254C1218.9 317.396 1227.55 315.462 1231.7 308.933L1259.82 264.603Z" fill="#EFFDFF"/>
<path d="M1308.3 188.187C1312.44 181.659 1310.51 173.008 1303.98 168.866C1297.45 164.723 1288.8 166.658 1284.66 173.186L1256.53 217.516C1252.39 224.045 1254.32 232.695 1260.85 236.838C1267.38 240.98 1276.03 239.046 1280.18 232.517L1308.3 188.187Z" fill="#F4FFFF"/>
<path d="M1356.79 111.771C1360.93 105.243 1359 96.5921 1352.47 92.4497C1345.94 88.3073 1337.29 90.2418 1333.15 96.7705L1305.02 141.1C1300.88 147.629 1302.81 156.28 1309.34 160.422C1315.87 164.564 1324.52 162.63 1328.67 156.101L1356.79 111.771Z" fill="#EDFBFF"/>
<path d="M1372.47 228.904C1376.61 222.376 1374.68 213.725 1368.15 209.582C1361.62 205.44 1352.97 207.375 1348.83 213.903L1320.7 258.233C1316.56 264.762 1318.49 273.412 1325.02 277.555C1331.55 281.697 1340.2 279.763 1344.35 273.234L1372.47 228.904Z" fill="#F5FFFF"/>
<path d="M1051.61 25.32C1055.76 18.7913 1053.82 10.1407 1047.29 5.99828C1040.76 1.85588 1032.11 3.79037 1027.97 10.3191L999.844 54.6489C995.701 61.1776 997.636 69.8283 1004.16 73.9707C1010.69 78.1131 1019.34 76.1786 1023.49 69.6499L1051.61 25.32Z" fill="#F5FFFF"/>
<path d="M504.011 320.949C508.154 314.421 506.219 305.77 499.69 301.627C493.162 297.485 484.511 299.42 480.369 305.948L452.242 350.278C448.099 356.807 450.034 365.457 456.563 369.6C463.091 373.742 471.742 371.808 475.884 365.279L504.011 320.949Z" fill="#F4FFFF"/>
<path d="M1081.56 687.401C1085.7 680.873 1083.77 672.222 1077.24 668.079C1070.71 663.937 1062.06 665.872 1057.92 672.4L1029.79 716.73C1025.65 723.259 1027.58 731.909 1034.11 736.052C1040.64 740.194 1049.29 738.26 1053.44 731.731L1081.56 687.401Z" fill="#E9F7FF"/>
<path d="M1145.74 728.118C1149.88 721.59 1147.95 712.939 1141.42 708.797C1134.89 704.654 1126.24 706.589 1122.1 713.117L1093.97 757.447C1089.83 763.976 1091.76 772.626 1098.29 776.769C1104.82 780.911 1113.47 778.977 1117.62 772.448L1145.74 728.118Z" fill="#EFFDFF"/>
<path d="M1017.39 646.685C1021.54 640.157 1019.6 631.506 1013.07 627.363C1006.54 623.221 997.893 625.156 993.75 631.684L965.624 676.014C961.481 682.543 963.416 691.193 969.944 695.336C976.473 699.478 985.124 697.544 989.266 691.015L1017.39 646.685Z" fill="#E9F7FF"/>
<path d="M1209.91 768.835C1214.05 762.307 1212.12 753.656 1205.59 749.513C1199.06 745.371 1190.41 747.306 1186.27 753.834L1158.14 798.164C1154 804.693 1155.93 813.343 1162.46 817.486C1168.99 821.628 1177.64 819.694 1181.79 813.165L1209.91 768.835Z" fill="#EFFDFF"/>
<path d="M1274.08 809.552C1278.22 803.024 1276.29 794.373 1269.76 790.23C1263.23 786.088 1254.58 788.023 1250.44 794.551L1222.31 838.881C1218.17 845.41 1220.1 854.06 1226.63 858.203C1233.16 862.345 1241.81 860.411 1245.96 853.882L1274.08 809.552Z" fill="#FBFFFF"/>
<path d="M1097.25 804.535C1101.39 798.007 1099.46 789.356 1092.93 785.213C1086.4 781.071 1077.75 783.006 1073.61 789.534L1045.48 833.864C1041.34 840.393 1043.27 849.043 1049.8 853.186C1056.33 857.328 1064.98 855.394 1069.13 848.865L1097.25 804.535Z" fill="#F4FFFF"/>
<path d="M522.854 504.037C526.997 497.508 525.062 488.858 518.533 484.715C512.005 480.573 503.354 482.508 499.212 489.036L471.085 533.366C466.942 539.895 468.877 548.545 475.406 552.688C481.934 556.83 490.585 554.896 494.727 548.367L522.854 504.037Z" fill="#EFFDFF"/>
<path d="M474.369 580.454C478.511 573.926 476.577 565.275 470.048 561.133C463.52 556.99 454.869 558.925 450.727 565.453L422.6 609.783C418.457 616.312 420.392 624.962 426.921 629.105C433.449 633.247 442.1 631.313 446.242 624.784L474.369 580.454Z" fill="#F7FFFF"/>
<path d="M377.399 733.286C381.541 726.758 379.607 718.107 373.078 713.964C366.55 709.822 357.899 711.757 353.756 718.285L325.63 762.615C321.487 769.144 323.422 777.794 329.95 781.937C336.479 786.079 345.13 784.145 349.272 777.616L377.399 733.286Z" fill="#F8FFFF"/>
<path d="M458.682 463.321C462.825 456.793 460.89 448.142 454.361 443.999C447.833 439.857 439.182 441.792 435.04 448.32L406.913 492.65C402.77 499.179 404.705 507.829 411.234 511.972C417.762 516.114 426.413 514.18 430.555 507.651L458.682 463.321Z" fill="#F7FFFF"/>
<path d="M410.196 539.737C414.338 533.209 412.404 524.558 405.875 520.415C399.347 516.273 390.696 518.208 386.553 524.736L358.427 569.066C354.284 575.595 356.219 584.245 362.747 588.388C369.276 592.53 377.927 590.596 382.069 584.067L410.196 539.737Z" fill="#F4FFFF"/>
<path d="M346.024 499.02C350.166 492.492 348.232 483.841 341.703 479.698C335.175 475.556 326.524 477.491 322.381 484.019L294.255 528.349C290.112 534.878 292.047 543.528 298.575 547.671C305.104 551.813 313.755 549.879 317.897 543.35L346.024 499.02Z" fill="#F6FFFF"/>
<path d="M361.711 616.153C365.853 609.625 363.919 600.974 357.39 596.831C350.862 592.689 342.211 594.624 338.068 601.152L309.942 645.482C305.799 652.011 307.734 660.661 314.262 664.804C320.791 668.946 329.442 667.012 333.584 660.483L361.711 616.153Z" fill="#F3FFFF"/>
<path d="M297.538 575.436C301.68 568.908 299.746 560.257 293.217 556.114C286.689 551.972 278.038 553.907 273.896 560.435L245.769 604.765C241.626 611.294 243.561 619.944 250.09 624.087C256.618 628.229 265.269 626.295 269.411 619.766L297.538 575.436Z" fill="#F7FFFF"/>
<path d="M313.226 692.569C317.368 686.041 315.434 677.39 308.905 673.247C302.377 669.105 293.726 671.04 289.584 677.568L261.457 721.898C257.314 728.427 259.249 737.077 265.778 741.22C272.306 745.362 280.957 743.428 285.099 736.899L313.226 692.569Z" fill="#F7FFFF"/>
<path d="M249.053 651.852C253.195 645.324 251.261 636.673 244.732 632.531C238.204 628.388 229.553 630.323 225.411 636.851L197.284 681.181C193.141 687.71 195.076 696.36 201.605 700.503C208.133 704.645 216.784 702.711 220.926 696.182L249.053 651.852Z" fill="#F5FFFF"/>
<path d="M200.568 728.269C204.711 721.741 202.776 713.09 196.247 708.948C189.719 704.805 181.068 706.74 176.926 713.268L148.799 757.598C144.656 764.127 146.591 772.777 153.12 776.92C159.648 781.062 168.299 779.128 172.441 772.599L200.568 728.269Z" fill="#F5FFFF"/>
<path d="M184.881 611.135C189.024 604.607 187.089 595.956 180.56 591.813C174.032 587.671 165.381 589.606 161.239 596.134L133.112 640.464C128.969 646.993 130.904 655.643 137.433 659.786C143.961 663.928 152.612 661.994 156.754 655.465L184.881 611.135Z" fill="#ECFAFF"/>
<path d="M233.366 534.719C237.509 528.19 235.574 519.54 229.045 515.397C222.517 511.255 213.866 513.19 209.724 519.718L181.597 564.048C177.454 570.577 179.389 579.227 185.918 583.37C192.446 587.512 201.097 585.578 205.239 579.049L233.366 534.719Z" fill="#EFF9FE"/>
<path d="M281.851 458.303C285.993 451.775 284.059 443.124 277.53 438.981C271.002 434.839 262.351 436.774 258.209 443.302L230.082 487.632C225.939 494.161 227.874 502.811 234.403 506.954C240.931 511.096 249.582 509.162 253.724 502.633L281.851 458.303Z" fill="#FAFFFF"/>
<path d="M148.927 738.73C153.07 732.202 151.135 723.551 144.606 719.409C138.078 715.266 129.427 717.201 125.285 723.729L97.1577 768.059C93.0153 774.588 94.9498 783.238 101.479 787.381C108.007 791.523 116.658 789.589 120.8 783.06L148.927 738.73Z" fill="#F8FFFF"/>
<path d="M136.395 687.551C140.538 681.023 138.603 672.372 132.075 668.229C125.546 664.087 116.895 666.022 112.753 672.55L84.626 716.88C80.4836 723.409 82.4181 732.059 88.9468 736.202C95.4755 740.344 104.126 738.41 108.269 731.881L136.395 687.551Z" fill="#F0FEFF"/>
<path d="M585.294 50.9846C589.436 44.4559 587.502 35.8053 580.973 31.6629C574.445 27.5205 565.794 29.455 561.651 35.9837L533.525 80.3135C529.382 86.8422 531.317 95.4929 537.845 99.6353C544.374 103.778 553.025 101.843 557.167 95.3145L585.294 50.9846Z" fill="#EFFDFF"/>
<path d="M874.783 20.3027C878.925 13.774 876.991 5.12335 870.462 0.98095C863.934 -3.16145 855.283 -1.22696 851.141 5.30175L823.014 49.6316C818.871 56.1603 820.806 64.8109 827.335 68.9533C833.863 73.0957 842.514 71.1612 846.656 64.6325L874.783 20.3027Z" fill="#E9F7FF"/>
<path d="M471.213 514.499C475.356 507.971 473.421 499.32 466.892 495.177C460.364 491.035 451.713 492.97 447.571 499.498L419.444 543.828C415.301 550.357 417.236 559.007 423.765 563.15C430.293 567.292 438.944 565.358 443.086 558.829L471.213 514.499Z" fill="#EFFDFF"/>
<path d="M407.041 473.782C411.183 467.253 409.249 458.603 402.72 454.46C396.192 450.318 387.541 452.253 383.399 458.781L355.272 503.111C351.129 509.64 353.064 518.29 359.592 522.433C366.121 526.575 374.772 524.641 378.914 518.112L407.041 473.782Z" fill="#FAFFFF"/>
<path d="M519.698 438.082C523.841 431.554 521.906 422.903 515.377 418.76C508.849 414.618 500.198 416.553 496.056 423.081L467.929 467.411C463.786 473.94 465.721 482.59 472.25 486.733C478.778 490.875 487.429 488.941 491.571 482.412L519.698 438.082Z" fill="#F7FFFF"/>
<path d="M536.809 127.4C540.951 120.872 539.017 112.221 532.488 108.078C525.96 103.936 517.309 105.871 513.167 112.399L485.04 156.729C480.897 163.258 482.832 171.908 489.361 176.051C495.889 180.193 504.54 178.259 508.682 171.73L536.809 127.4Z" fill="#E9F7FF"/>
<path d="M633.779 -25.4319C637.922 -31.9606 635.987 -40.6113 629.458 -44.7537C622.93 -48.8961 614.279 -46.9616 610.137 -40.4329L582.01 3.89692C577.867 10.4256 579.802 19.0763 586.331 23.2187C592.859 27.3611 601.51 25.4266 605.652 18.8979L633.779 -25.4319Z" fill="#F4FFFF"/>
<path d="M713.64 132.418C717.782 125.89 715.848 117.239 709.319 113.096C702.791 108.954 694.14 110.889 689.998 117.417L661.871 161.747C657.728 168.276 659.663 176.926 666.192 181.069C672.72 185.211 681.371 183.277 685.513 176.748L713.64 132.418Z" fill="#E9F7FF"/>
<path d="M826.297 96.7188C830.44 90.1901 828.505 81.5394 821.976 77.397C815.448 73.2546 806.797 75.1891 802.655 81.7178L774.528 126.048C770.385 132.576 772.32 141.227 778.849 145.369C785.377 149.512 794.028 147.577 798.17 141.049L826.297 96.7188Z" fill="#F2FFFF"/>
<path d="M472.636 86.6838C476.779 80.1551 474.844 71.5045 468.315 67.3621C461.787 63.2197 453.136 65.1542 448.994 71.6829L420.867 116.013C416.724 122.541 418.659 131.192 425.188 135.334C431.716 139.477 440.367 137.542 444.509 131.014L472.636 86.6838Z" fill="#F5FFFF"/>
<path d="M181.725 545.181C185.867 538.653 183.933 530.002 177.404 525.859C170.876 521.717 162.225 523.652 158.083 530.18L129.956 574.51C125.813 581.039 127.748 589.689 134.277 593.832C140.805 597.974 149.456 596.04 153.598 589.511L181.725 545.181Z" fill="#EFFDFF"/>
<path d="M230.21 468.764C234.352 462.236 232.418 453.585 225.889 449.442C219.361 445.3 210.71 447.235 206.568 453.763L178.441 498.093C174.298 504.622 176.233 513.272 182.761 517.415C189.29 521.557 197.941 519.623 202.083 513.094L230.21 468.764Z" fill="#F8FFFF"/>
<path d="M424.151 163.1C428.294 156.572 426.359 147.921 419.83 143.778C413.302 139.636 404.651 141.571 400.509 148.099L372.382 192.429C368.239 198.958 370.174 207.608 376.703 211.751C383.231 215.893 391.882 213.959 396.024 207.43L424.151 163.1Z" fill="#F3FFFF"/>
<path d="M521.121 10.2675C525.263 3.73883 523.329 -4.91182 516.8 -9.05422C510.272 -13.1966 501.621 -11.2621 497.479 -4.73342L469.352 39.5964C465.209 46.1251 467.144 54.7758 473.673 58.9182C480.201 63.0606 488.852 61.1261 492.994 54.5974L521.121 10.2675Z" fill="#EFFDFF"/>
<path d="M408.463 45.9667C412.606 39.438 410.671 30.7874 404.142 26.645C397.614 22.5026 388.963 24.4371 384.821 30.9658L356.694 75.2956C352.551 81.8243 354.486 90.475 361.015 94.6174C367.543 98.7598 376.194 96.8253 380.336 90.2966L408.463 45.9667Z" fill="#F8FFFF"/>
<path d="M359.978 122.383C364.12 115.854 362.186 107.204 355.657 103.061C349.129 98.9189 340.478 100.853 336.336 107.382L308.209 151.712C304.066 158.241 306.001 166.891 312.53 171.034C319.058 175.176 327.709 173.242 331.851 166.713L359.978 122.383Z" fill="#F5FFFF"/>
<path d="M456.949 -30.4493C461.091 -36.978 459.157 -45.6286 452.628 -49.771C446.1 -53.9134 437.449 -51.9789 433.307 -45.4502L405.18 -1.1204C401.037 5.40832 402.972 14.059 409.501 18.2014C416.029 22.3438 424.68 20.4093 428.822 13.8806L456.949 -30.4493Z" fill="#FBFFFF"/>
<path d="M263.007 275.215C267.149 268.687 265.215 260.036 258.686 255.893C252.158 251.751 243.507 253.686 239.365 260.214L211.238 304.544C207.095 311.073 209.03 319.723 215.559 323.866C222.087 328.008 230.738 326.074 234.88 319.545L263.007 275.215Z" fill="#F7FFFF"/>
<path d="M198.835 234.499C202.977 227.971 201.043 219.32 194.514 215.177C187.986 211.035 179.335 212.97 175.193 219.498L147.066 263.828C142.923 270.357 144.858 279.007 151.387 283.15C157.915 287.292 166.566 285.358 170.708 278.829L198.835 234.499Z" fill="#EFFDFF"/>
<path d="M134.662 193.781C138.805 187.253 136.87 178.602 130.341 174.459C123.813 170.317 115.162 172.252 111.02 178.78L82.8929 223.11C78.7505 229.639 80.6849 238.289 87.2137 242.432C93.7424 246.574 102.393 244.64 106.535 238.111L134.662 193.781Z" fill="#F6FFFF"/>
<path d="M247.32 158.082C251.462 151.554 249.528 142.903 242.999 138.76C236.471 134.618 227.82 136.553 223.677 143.081L195.551 187.411C191.408 193.94 193.343 202.59 199.871 206.733C206.4 210.875 215.051 208.941 219.193 202.412L247.32 158.082Z" fill="#F1FFFF"/>
<path d="M183.147 117.365C187.29 110.837 185.355 102.186 178.826 98.0437C172.298 93.9013 163.647 95.8358 159.505 102.364L131.378 146.694C127.235 153.223 129.17 161.874 135.699 166.016C142.227 170.158 150.878 168.224 155.02 161.695L183.147 117.365Z" fill="#EEFCFF"/>
<path d="M118.975 76.6486C123.117 70.1199 121.183 61.4693 114.654 57.3269C108.125 53.1845 99.4747 55.119 95.3323 61.6477L67.2055 105.978C63.0631 112.506 64.9976 121.157 71.5263 125.299C78.055 129.442 86.7056 127.507 90.848 120.978L118.975 76.6486Z" fill="#F1FFFF"/>
<path d="M103.287 -40.4844C107.43 -47.0131 105.495 -55.6637 98.9665 -59.8061C92.4378 -63.9485 83.7872 -62.014 79.6448 -55.4853L51.518 -11.1555C47.3756 -4.62679 49.3101 4.02386 55.8388 8.16626C62.3675 12.3087 71.0181 10.3742 75.1605 3.84545L103.287 -40.4844Z" fill="#FBFFFF"/>
<path d="M295.805 81.6662C299.947 75.1375 298.013 66.4869 291.484 62.3445C284.956 58.2021 276.305 60.1366 272.162 66.6653L244.036 110.995C239.893 117.524 241.828 126.174 248.356 130.317C254.885 134.459 263.536 132.525 267.678 125.996L295.805 81.6662Z" fill="#F1FFFF"/>
<path d="M231.633 40.9492C235.775 34.4205 233.841 25.7699 227.312 21.6275C220.784 17.4851 212.133 19.4196 207.99 25.9483L179.864 70.2781C175.721 76.8068 177.656 85.4575 184.184 89.5999C190.713 93.7423 199.364 91.8078 203.506 85.2791L231.633 40.9492Z" fill="#F8FFFF"/>
<path d="M167.46 0.232445C171.602 -6.29627 169.668 -14.9469 163.139 -19.0893C156.611 -23.2317 147.96 -21.2972 143.818 -14.7685L115.691 29.5613C111.548 36.09 113.483 44.7407 120.012 48.8831C126.54 53.0255 135.191 51.091 139.333 44.5623L167.46 0.232445Z" fill="#F7FFFF"/>
<path d="M150.35 310.915C154.492 304.387 152.558 295.736 146.029 291.593C139.5 287.451 130.85 289.386 126.707 295.914L98.5804 340.244C94.438 346.773 96.3724 355.423 102.901 359.566C109.43 363.708 118.081 361.774 122.223 355.245L150.35 310.915Z" fill="#F8FFFF"/>
<path d="M72.2228 646.835C76.3652 640.307 74.4307 631.656 67.902 627.513C61.3733 623.371 52.7226 625.306 48.5802 631.834L20.4534 676.164C16.311 682.693 18.2455 691.343 24.7742 695.486C31.3029 699.628 39.9536 697.694 44.096 691.165L72.2228 646.835Z" fill="#F7FFFF"/>
<path d="M73.6455 219.019C77.7879 212.491 75.8534 203.84 69.3247 199.697C62.796 195.555 54.1453 197.49 50.0029 204.018L21.8761 248.348C17.7337 254.877 19.6682 263.527 26.1969 267.67C32.7257 271.812 41.3763 269.878 45.5187 263.349L73.6455 219.019Z" fill="#EFF9FE"/>
<path d="M57.958 101.887C62.1004 95.3582 60.1659 86.7076 53.6372 82.5652C47.1085 78.4228 38.4578 80.3573 34.3154 86.886L6.18863 131.216C2.04623 137.745 3.98072 146.395 10.5094 150.538C17.0382 154.68 25.6888 152.745 29.8312 146.217L57.958 101.887Z" fill="#F3FFFF"/>
<path d="M87.9103 763.968C92.0527 757.44 90.1182 748.789 83.5895 744.646C77.0608 740.504 68.4101 742.439 64.2677 748.967L36.1409 793.297C31.9985 799.826 33.933 808.476 40.4617 812.619C46.9904 816.761 55.6411 814.827 59.7835 808.298L87.9103 763.968Z" fill="#F7FFFF"/>
<path d="M84.7543 698.013C88.8967 691.485 86.9622 682.834 80.4335 678.691C73.9048 674.549 65.2541 676.484 61.1117 683.012L32.9849 727.342C28.8425 733.871 30.777 742.521 37.3057 746.664C43.8344 750.806 52.4851 748.872 56.6275 742.343L84.7543 698.013Z" fill="#F1FFFF"/>
<path d="M70.4895 153.064C74.6319 146.536 72.6974 137.885 66.1687 133.742C59.64 129.6 50.9893 131.535 46.8469 138.063L18.7201 182.393C14.5777 188.922 16.5122 197.572 23.0409 201.715C29.5696 205.857 38.2203 203.923 42.3627 197.394L70.4895 153.064Z" fill="#F1FFFF"/>
<path d="M54.8021 35.9319C58.9445 29.4032 57.01 20.7525 50.4813 16.6101C43.9526 12.4677 35.302 14.4022 31.1596 20.9309L3.03275 65.2607C-1.10965 71.7894 0.824836 80.4401 7.35355 84.5825C13.8823 88.7249 22.5329 86.7904 26.6753 80.2617L54.8021 35.9319Z" fill="#F9FFFF"/>
<path d="M86.177 270.198C90.3194 263.67 88.3849 255.019 81.8562 250.876C75.3275 246.734 66.6768 248.669 62.5344 255.197L34.4076 299.527C30.2652 306.056 32.1997 314.706 38.7284 318.849C45.2571 322.991 53.9078 321.057 58.0502 314.528L86.177 270.198Z" fill="#F8FFFF"/>
<path d="M1422.08 646.835C1426.22 640.306 1424.29 631.656 1417.76 627.513C1411.23 623.371 1402.58 625.306 1398.44 631.834L1370.31 676.164C1366.17 682.693 1368.1 691.343 1374.63 695.486C1381.16 699.628 1389.81 697.694 1393.96 691.165L1422.08 646.835Z" fill="#F7FFFF"/>
<path d="M1423.51 219.019C1427.65 212.491 1425.72 203.84 1419.19 199.697C1412.66 195.555 1404.01 197.49 1399.87 204.018L1371.74 248.348C1367.6 254.877 1369.53 263.527 1376.06 267.67C1382.59 271.812 1391.24 269.878 1395.39 263.349L1423.51 219.019Z" fill="#FAFFFF"/>
<path d="M1407.82 101.887C1411.96 95.3581 1410.03 86.7074 1403.5 82.565C1396.97 78.4226 1388.32 80.3571 1384.18 86.8858L1356.05 131.216C1351.91 137.744 1353.84 146.395 1360.37 150.537C1366.9 154.68 1375.55 152.745 1379.7 146.217L1407.82 101.887Z" fill="#F3FFFF"/>
<path d="M1437.77 763.968C1441.91 757.44 1439.98 748.789 1433.45 744.646C1426.92 740.504 1418.27 742.439 1414.13 748.967L1386 793.297C1381.86 799.826 1383.79 808.476 1390.32 812.619C1396.85 816.761 1405.5 814.827 1409.65 808.298L1437.77 763.968Z" fill="#F7FFFF"/>
<path d="M1434.61 698.013C1438.75 691.485 1436.82 682.834 1430.29 678.691C1423.76 674.549 1415.11 676.484 1410.97 683.012L1382.84 727.342C1378.7 733.871 1380.63 742.521 1387.16 746.664C1393.69 750.806 1402.34 748.872 1406.49 742.343L1434.61 698.013Z" fill="#F1FFFF"/>
<path d="M1420.35 153.064C1424.49 146.536 1422.56 137.885 1416.03 133.742C1409.5 129.6 1400.85 131.535 1396.71 138.063L1368.58 182.393C1364.44 188.922 1366.37 197.572 1372.9 201.715C1379.43 205.857 1388.08 203.923 1392.23 197.394L1420.35 153.064Z" fill="#F1FFFF"/>
<path d="M1404.66 35.9319C1408.8 29.4032 1406.87 20.7525 1400.34 16.6101C1393.81 12.4677 1385.16 14.4022 1381.02 20.9309L1352.89 65.2607C1348.75 71.7894 1350.68 80.4401 1357.21 84.5825C1363.74 88.7249 1372.39 86.7904 1376.54 80.2617L1404.66 35.9319Z" fill="#F9FFFF"/>
<path d="M1436.04 270.198C1440.18 263.67 1438.25 255.019 1431.72 250.876C1425.19 246.734 1416.54 248.669 1412.4 255.197L1384.27 299.527C1380.13 306.056 1382.06 314.706 1388.59 318.849C1395.12 322.991 1403.77 321.057 1407.92 314.528L1436.04 270.198Z" fill="#F8FFFF"/>
</svg>
