<svg width="35" height="26" viewBox="0 0 35 26" fill="none" xmlns="http://www.w3.org/2000/svg">
<g id="logos:google-gmail" clip-path="url(#clip0_102_1595)">
<path id="Vector" d="M8.03782 25.872V12.5474L3.90544 8.76686L0.199829 6.66895V23.5206C0.199829 24.8217 1.25397 25.872 2.55128 25.872H8.03782Z" fill="#4285F4"/>
<path id="Vector_2" d="M26.8489 25.8719H32.3354C33.6366 25.8719 34.6869 24.8176 34.6869 23.5204V6.66895L30.4897 9.07186L26.8489 12.5472V25.8719Z" fill="#34A853"/>
<path id="Vector_3" d="M8.03783 12.5472L7.47552 7.34088L8.03783 2.35791L17.4434 9.41213L26.8489 2.35791L27.4779 7.07186L26.8489 12.5472L17.4434 19.6014L8.03783 12.5472Z" fill="#EA4335"/>
<path id="Vector_4" d="M26.8489 2.35801V12.5473L34.6869 6.66889V3.53367C34.6869 0.625845 31.3675 -1.03182 29.0437 0.712062L26.8489 2.35801Z" fill="#FBBC04"/>
<path id="Vector_5" d="M0.199829 6.66895L3.80467 9.37268L8.03782 12.5474V2.35807L5.84304 0.712124C3.51517 -1.0319 0.199829 0.625906 0.199829 3.53359V6.66882V6.66895Z" fill="#C5221F"/>
</g>
<defs>
<clipPath id="clip0_102_1595">
<rect width="34.4871" height="26" fill="white" transform="translate(0.199829)"/>
</clipPath>
</defs>
</svg>
