<svg width="26" height="26" viewBox="0 0 26 26" fill="none" xmlns="http://www.w3.org/2000/svg">
<g id="Group 3">
<path id="Vector" d="M24.0818 9.84584e-05H1.91802C1.41514 -0.00501941 0.930765 0.189566 0.571183 0.541156C0.211602 0.892747 0.00618268 1.37263 0 1.87549V24.1288C0.0073008 24.6309 0.213211 25.1097 0.572671 25.4604C0.932131 25.811 1.41587 26.005 1.91802 25.9999H24.0818C24.5847 26.0039 25.0687 25.8086 25.4281 25.4568C25.7875 25.105 25.9931 24.6253 25.9998 24.1224V1.8691C25.9908 1.36771 25.7843 0.890116 25.4252 0.540139C25.066 0.190162 24.5832 -0.00391268 24.0818 9.84584e-05Z" fill="#0076B2"/>
<path id="Vector_2" d="M3.84875 9.74571H7.70823V22.1638H3.84875V9.74571ZM5.77956 3.56543C6.22222 3.56543 6.65494 3.69672 7.02297 3.9427C7.391 4.18867 7.67781 4.53828 7.84712 4.94728C8.01642 5.35629 8.06061 5.80633 7.97409 6.24045C7.88758 6.67458 7.67425 7.07329 7.36109 7.38616C7.04793 7.69902 6.64901 7.91197 6.2148 7.99807C5.78059 8.08417 5.3306 8.03955 4.92175 7.86986C4.51291 7.70017 4.16358 7.41303 3.91795 7.04476C3.67233 6.67649 3.54145 6.24365 3.54187 5.80099C3.54244 5.20788 3.77844 4.63927 4.19803 4.22008C4.61761 3.80089 5.18646 3.56543 5.77956 3.56543ZM10.1292 9.74571H13.8288V11.4506H13.88C14.3957 10.4746 15.6531 9.44522 17.5306 9.44522C21.4391 9.4367 22.1637 12.009 22.1637 15.3442V22.1638H18.3042V16.1221C18.3042 14.6835 18.2786 12.8316 16.2988 12.8316C14.319 12.8316 13.9823 14.4001 13.9823 16.0283V22.1638H10.1292V9.74571Z" fill="white"/>
</g>
</svg>
