<svg width="27" height="26" viewBox="0 0 27 26" fill="none" xmlns="http://www.w3.org/2000/svg">
<g id="logos:whatsapp-icon" clip-path="url(#clip0_62_1995)">
<path id="Vector" d="M1.43736 12.8445C1.43675 15.029 2.00754 17.162 3.09289 19.0421L1.33356 25.4657L7.90732 23.742C9.72554 24.7318 11.7627 25.2505 13.8329 25.2506H13.8383C20.6724 25.2506 26.2355 19.6895 26.2384 12.8543C26.2397 9.54208 24.951 6.42752 22.6096 4.0843C20.2686 1.74127 17.1552 0.450242 13.8378 0.44873C7.00297 0.44873 1.44028 6.00951 1.43746 12.8445" fill="url(#paint0_linear_62_1995)"/>
<path id="Vector_2" d="M0.99467 12.8404C0.993965 15.1035 1.58521 17.3128 2.70926 19.2602L0.886841 25.914L7.69632 24.1286C9.57255 25.1516 11.685 25.6909 13.8345 25.6917H13.8401C20.9193 25.6917 26.6823 19.9306 26.6853 12.8507C26.6865 9.41946 25.3514 6.19294 22.9264 3.76577C20.501 1.3389 17.2762 0.00141085 13.8401 0C6.75961 0 0.997492 5.76031 0.99467 12.8404ZM5.04986 18.9248L4.79561 18.5212C3.72679 16.8217 3.16265 14.8578 3.16345 12.8412C3.16577 6.95641 7.95501 2.16868 13.8441 2.16868C16.696 2.16989 19.3763 3.28164 21.3922 5.29876C23.408 7.31608 24.5172 9.99771 24.5165 12.8498C24.5139 18.7346 19.7245 23.5229 13.8401 23.5229H13.8358C11.9198 23.5219 10.0407 23.0074 8.40185 22.035L8.01185 21.8037L3.97096 22.8632L5.04986 18.9247V18.9248Z" fill="url(#paint1_linear_62_1995)"/>
<path id="Vector_3" d="M10.6296 7.47219C10.3891 6.93778 10.1361 6.927 9.90741 6.91762C9.72017 6.90956 9.50612 6.91017 9.29227 6.91017C9.07823 6.91017 8.73045 6.99069 8.43649 7.31166C8.14223 7.63293 7.31305 8.4093 7.31305 9.98834C7.31305 11.5675 8.4632 13.0935 8.62353 13.3079C8.78406 13.5218 10.8439 16.8659 14.1062 18.1524C16.8175 19.2216 17.3692 19.0089 17.9576 18.9553C18.5462 18.9019 19.8566 18.1792 20.124 17.4297C20.3916 16.6803 20.3916 16.038 20.3113 15.9037C20.2311 15.77 20.0171 15.6897 19.6961 15.5293C19.375 15.3687 17.7971 14.5923 17.5029 14.4851C17.2087 14.3781 16.9947 14.3247 16.7807 14.6461C16.5666 14.9669 15.952 15.6897 15.7647 15.9037C15.5775 16.1183 15.3902 16.145 15.0693 15.9845C14.7481 15.8234 13.7145 15.4849 12.4882 14.3916C11.534 13.5409 10.8899 12.4903 10.7026 12.1689C10.5154 11.8481 10.6826 11.6741 10.8435 11.5142C10.9877 11.3704 11.1646 11.1394 11.3252 10.9521C11.4852 10.7646 11.5387 10.6309 11.6457 10.4168C11.7528 10.2026 11.6992 10.0152 11.6191 9.85462C11.5387 9.69408 10.915 8.10677 10.6296 7.47219Z" fill="white"/>
</g>
<defs>
<linearGradient id="paint0_linear_62_1995" x1="1246.58" y1="2502.14" x2="1246.58" y2="0.44873" gradientUnits="userSpaceOnUse">
<stop stop-color="#1FAF38"/>
<stop offset="1" stop-color="#60D669"/>
</linearGradient>
<linearGradient id="paint1_linear_62_1995" x1="1290.81" y1="2591.4" x2="1290.81" y2="0" gradientUnits="userSpaceOnUse">
<stop stop-color="#F9F9F9"/>
<stop offset="1" stop-color="white"/>
</linearGradient>
<clipPath id="clip0_62_1995">
<rect width="25.7984" height="26" fill="white" transform="translate(0.886841)"/>
</clipPath>
</defs>
</svg>
